<svg width="27" height="24" viewBox="0 0 27 24" fill="none" xmlns="http://www.w3.org/2000/svg">
<path d="M13.3254 5.8467C9.70045 5.8467 6.77656 8.594 6.77656 12C6.77656 15.406 9.70045 18.1533 13.3254 18.1533C16.9503 18.1533 19.8742 15.406 19.8742 12C19.8742 8.594 16.9503 5.8467 13.3254 5.8467ZM13.3254 16.0004C10.9829 16.0004 9.06779 14.2064 9.06779 12C9.06779 9.7936 10.9772 7.99955 13.3254 7.99955C15.6736 7.99955 17.583 9.7936 17.583 12C17.583 14.2064 15.6679 16.0004 13.3254 16.0004ZM21.6696 5.595C21.6696 6.39295 20.9856 7.03024 20.1421 7.03024C19.2929 7.03024 18.6146 6.38759 18.6146 5.595C18.6146 4.80241 19.2985 4.15977 20.1421 4.15977C20.9856 4.15977 21.6696 4.80241 21.6696 5.595ZM26.007 7.05166C25.9101 5.12909 25.4427 3.42608 23.9437 2.02298C22.4504 0.619882 20.638 0.180743 18.5918 0.0843468C16.483 -0.0281156 10.1621 -0.0281156 8.05327 0.0843468C6.01282 0.175388 4.20035 0.614526 2.70136 2.01763C1.20237 3.42073 0.740701 5.12373 0.638108 7.0463C0.518417 9.02778 0.518417 14.9669 0.638108 16.9483C0.735001 18.8709 1.20237 20.5739 2.70136 21.977C4.20035 23.3801 6.00712 23.8193 8.05327 23.9157C10.1621 24.0281 16.483 24.0281 18.5918 23.9157C20.638 23.8246 22.4504 23.3855 23.9437 21.977C25.437 20.5739 25.9044 18.8709 26.007 16.9483C26.1267 14.9669 26.1267 9.03314 26.007 7.05166ZM23.2826 19.0744C22.838 20.1241 21.9774 20.9327 20.8545 21.3558C19.1732 21.9824 15.1834 21.8378 13.3254 21.8378C11.4673 21.8378 7.47191 21.977 5.79623 21.3558C4.67911 20.9381 3.81848 20.1294 3.36821 19.0744C2.70136 17.4946 2.85525 13.7458 2.85525 12C2.85525 10.2542 2.70706 6.50006 3.36821 4.92558C3.81278 3.87593 4.67341 3.06728 5.79623 2.6442C7.47761 2.01763 11.4673 2.16222 13.3254 2.16222C15.1834 2.16222 19.1789 2.02298 20.8545 2.6442C21.9717 3.06192 22.8323 3.87058 23.2826 4.92558C23.9494 6.50541 23.7955 10.2542 23.7955 12C23.7955 13.7458 23.9494 17.4999 23.2826 19.0744Z" fill="black"/>
</svg>
