<svg width="26" height="24" viewBox="0 0 26 24" fill="none" xmlns="http://www.w3.org/2000/svg">
<path d="M22.9077 0H2.83401C1.32277 0 0.0966797 1.15179 0.0966797 2.57143V21.4286C0.0966797 22.8482 1.32277 24 2.83401 24H22.9077C24.419 24 25.6451 22.8482 25.6451 21.4286V2.57143C25.6451 1.15179 24.419 0 22.9077 0ZM20.1191 8.50714C20.1305 8.65714 20.1305 8.8125 20.1305 8.9625C20.1305 13.6071 16.3667 18.9589 9.48913 18.9589C7.3677 18.9589 5.40025 18.3804 3.74645 17.3839C4.0487 17.4161 4.33954 17.4268 4.64749 17.4268C6.39824 17.4268 8.00641 16.8696 9.28954 15.9268C7.64714 15.8946 6.26707 14.8821 5.79374 13.4893C6.36972 13.5696 6.88867 13.5696 7.48176 13.425C5.77093 13.0982 4.48781 11.6839 4.48781 9.975V9.93214C4.98395 10.1946 5.56563 10.3554 6.17583 10.3768C5.66282 10.0562 5.24227 9.62136 4.95171 9.11098C4.66115 8.60059 4.50961 8.03057 4.51062 7.45179C4.51062 6.79821 4.69311 6.19821 5.01817 5.67857C6.86016 7.81071 9.626 9.20357 12.7283 9.35357C12.1979 6.96964 14.097 5.03571 16.3781 5.03571C17.4559 5.03571 18.4254 5.45893 19.1097 6.14464C19.9537 5.99464 20.7635 5.7 21.482 5.29821C21.2026 6.1125 20.6152 6.79821 19.8397 7.23214C20.5924 7.15714 21.3224 6.95893 21.9953 6.68571C21.4878 7.3875 20.849 8.00893 20.1191 8.50714Z" fill="black"/>
</svg>
