<svg width="66" height="66" viewBox="0 0 66 66" fill="none" xmlns="http://www.w3.org/2000/svg">
<path d="M61.2857 0H4.69955C2.1067 0 0 2.13616 0 4.75848V61.2415C0 63.8638 2.1067 66 4.69955 66H61.2857C63.8786 66 66 63.8638 66 61.2415V4.75848C66 2.13616 63.8786 0 61.2857 0ZM19.9473 56.5714H10.1652V25.0741H19.9621V56.5714H19.9473ZM15.0562 20.7723C11.9183 20.7723 9.38438 18.2237 9.38438 15.1004C9.38438 11.9772 11.9183 9.42857 15.0562 9.42857C18.1795 9.42857 20.7281 11.9772 20.7281 15.1004C20.7281 18.2384 18.1942 20.7723 15.0562 20.7723ZM56.6156 56.5714H46.8335V41.25C46.8335 37.5964 46.7598 32.8969 41.7509 32.8969C36.6536 32.8969 35.8728 36.8746 35.8728 40.9848V56.5714H26.0906V25.0741H35.475V29.3759H35.6076C36.9188 26.9009 40.1156 24.2933 44.8741 24.2933C54.7741 24.2933 56.6156 30.8196 56.6156 39.3054V56.5714Z" fill="black"/>
</svg>
