<svg width="22" height="29" viewBox="0 0 22 29" fill="none" xmlns="http://www.w3.org/2000/svg">
<path d="M5.57638 28.7149C-1.86432 21.3587 -1.85326 9.44278 5.57638 2.09757C5.90282 1.77483 6.40865 1.72193 6.79457 1.96038L10.508 4.25506C10.7038 4.37605 10.8504 4.56121 10.9221 4.7782C10.9939 4.99518 10.9862 5.23019 10.9004 5.44214L9.04372 10.0312C8.96441 10.2273 8.82278 10.3925 8.64018 10.502C8.45759 10.6115 8.24394 10.6594 8.03144 10.6383L4.83399 10.3223C3.62794 13.6222 3.6531 17.2591 4.83399 20.4901L8.0315 20.174C8.244 20.153 8.45765 20.2009 8.64024 20.3104C8.82283 20.4199 8.96446 20.5851 9.04378 20.7812L10.9005 25.3703C10.9862 25.5822 10.9939 25.8172 10.9222 26.0342C10.8505 26.2512 10.7039 26.4364 10.5081 26.5574L6.79463 28.852C6.60578 28.9687 6.38252 29.0187 6.16127 28.9937C5.94002 28.9688 5.73384 28.8705 5.57638 28.7149ZM14.1583 5.40764C14.8361 6.54312 14.8361 7.95692 14.1583 9.0924C13.932 9.47149 13.4073 9.5432 13.0859 9.23859L12.7436 8.91426C12.5195 8.70197 12.469 8.36927 12.614 8.09807C12.7536 7.8367 12.8266 7.5456 12.8266 7.25002C12.8266 6.95445 12.7536 6.66334 12.614 6.40197C12.4689 6.13077 12.5195 5.79807 12.7436 5.58578L13.0859 5.26145C13.4073 4.95684 13.932 5.02855 14.1583 5.40764ZM19.4169 0.242755C22.8624 4.29845 22.8597 10.2048 19.4169 14.2572C19.1606 14.559 18.699 14.5827 18.4113 14.3101L18.0791 13.9953C17.8179 13.7477 17.794 13.3423 18.0259 13.0676C20.8725 9.69534 20.8702 4.80187 18.0259 1.43238C17.794 1.15767 17.8178 0.752238 18.0791 0.504662L18.4113 0.18991C18.699 -0.0827016 19.1606 -0.0589692 19.4169 0.242755ZM16.7831 2.78824C18.8484 5.41195 18.8518 9.08379 16.7831 11.7117C16.5316 12.0313 16.0556 12.0658 15.7601 11.7856L15.4268 11.4696C15.1747 11.2306 15.1404 10.8412 15.3531 10.5673C16.8734 8.60954 16.8733 5.89033 15.3531 3.93272C15.1404 3.65881 15.1747 3.2694 15.4268 3.03038L15.7601 2.71438C16.0556 2.43418 16.5316 2.46873 16.7831 2.78824Z" fill="black"/>
</svg>
