<svg width="63" height="66" viewBox="0 0 63 66" fill="none" xmlns="http://www.w3.org/2000/svg">
<path d="M55.7432 0H6.68919C2.9962 0 0 3.16741 0 7.07143V58.9286C0 62.8326 2.9962 66 6.68919 66H55.7432C59.4362 66 62.4324 62.8326 62.4324 58.9286V7.07143C62.4324 3.16741 59.4362 0 55.7432 0ZM48.9286 23.3946C48.9565 23.8071 48.9565 24.2344 48.9565 24.6469C48.9565 37.4196 39.7589 52.1371 22.9523 52.1371C17.7682 52.1371 12.9603 50.546 8.91892 47.8058C9.65752 47.8942 10.3682 47.9237 11.1208 47.9237C15.3991 47.9237 19.329 46.3915 22.4645 43.7987C18.451 43.7103 15.0785 40.9259 13.9219 37.0955C15.3294 37.3165 16.5976 37.3165 18.0469 36.9188C13.8661 36.0201 10.7306 32.1308 10.7306 27.4313V27.3134C11.943 28.0353 13.3644 28.4772 14.8556 28.5362C13.6019 27.6546 12.5743 26.4587 11.8642 25.0552C11.1542 23.6516 10.7839 22.0841 10.7863 20.4924C10.7863 18.6951 11.2323 17.0451 12.0266 15.6161C16.5279 21.4795 23.2867 25.3098 30.8678 25.7223C29.5718 19.1665 34.2124 13.8482 39.7867 13.8482C42.4206 13.8482 44.7897 15.0121 46.462 16.8978C48.5245 16.4853 50.5034 15.675 52.2593 14.5701C51.5764 16.8094 50.1411 18.6951 48.2458 19.8884C50.0853 19.6821 51.8691 19.1371 53.5135 18.3857C52.2732 20.3156 50.7124 22.0246 48.9286 23.3946Z" fill="black"/>
</svg>
