<svg width="58" height="58" viewBox="0 0 58 58" fill="none" xmlns="http://www.w3.org/2000/svg">
<path d="M29.0065 14.1295C20.7771 14.1295 14.1393 20.7688 14.1393 29C14.1393 37.2312 20.7771 43.8705 29.0065 43.8705C37.2358 43.8705 43.8736 37.2312 43.8736 29C43.8736 20.7688 37.2358 14.1295 29.0065 14.1295ZM29.0065 38.6677C23.6885 38.6677 19.3409 34.3321 19.3409 29C19.3409 23.6679 23.6755 19.3323 29.0065 19.3323C34.3374 19.3323 38.6721 23.6679 38.6721 29C38.6721 34.3321 34.3245 38.6677 29.0065 38.6677ZM47.9495 13.5213C47.9495 15.4496 46.3968 16.9897 44.4818 16.9897C42.5538 16.9897 41.0141 15.4367 41.0141 13.5213C41.0141 11.6058 42.5668 10.0528 44.4818 10.0528C46.3968 10.0528 47.9495 11.6058 47.9495 13.5213ZM57.7962 17.0415C57.5762 12.3953 56.5152 8.27971 53.1122 4.88888C49.7221 1.49805 45.6075 0.436796 40.9623 0.203838C36.1748 -0.067946 21.8252 -0.067946 17.0377 0.203838C12.4055 0.423854 8.2908 1.48511 4.88779 4.87593C1.48477 8.26676 0.436698 12.3823 0.203793 17.0286C-0.0679308 21.8171 -0.0679308 36.1699 0.203793 40.9585C0.423759 45.6047 1.48477 49.7203 4.88779 53.1111C8.2908 56.502 12.3925 57.5632 17.0377 57.7962C21.8252 58.0679 36.1748 58.0679 40.9623 57.7962C45.6075 57.5761 49.7221 56.5149 53.1122 53.1111C56.5023 49.7203 57.5633 45.6047 57.7962 40.9585C58.0679 36.1699 58.0679 21.8301 57.7962 17.0415ZM51.6113 46.0965C50.602 48.6332 48.6482 50.5874 46.0992 51.6098C42.2821 53.1241 33.2247 52.7746 29.0065 52.7746C24.7883 52.7746 15.7179 53.1111 11.9138 51.6098C9.37769 50.6004 7.42387 48.6461 6.40167 46.0965C4.88779 42.2786 5.23714 33.2191 5.23714 29C5.23714 24.7809 4.90073 15.7085 6.40167 11.9035C7.41093 9.36684 9.36475 7.41258 11.9138 6.39016C15.7308 4.87593 24.7883 5.22537 29.0065 5.22537C33.2247 5.22537 42.295 4.88888 46.0992 6.39016C48.6353 7.39964 50.5891 9.3539 51.6113 11.9035C53.1252 15.7214 52.7758 24.7809 52.7758 29C52.7758 33.2191 53.1252 42.2915 51.6113 46.0965Z" fill="black"/>
</svg>
