<svg width="58" height="58" viewBox="0 0 58 58" fill="none" xmlns="http://www.w3.org/2000/svg">
<path d="M12.9827 58H0.958036V19.2764H12.9827V58ZM6.96388 13.9941C3.11879 13.9941 0 10.8092 0 6.96404C2.75215e-08 5.11706 0.733693 3.34573 2.03967 2.03972C3.34566 0.733709 5.11695 0 6.96388 0C8.81082 0 10.5821 0.733709 11.8881 2.03972C13.1941 3.34573 13.9278 5.11706 13.9278 6.96404C13.9278 10.8092 10.8077 13.9941 6.96388 13.9941ZM57.9871 58H45.9883V39.1496C45.9883 34.6571 45.8977 28.8958 39.7365 28.8958C33.4846 28.8958 32.5266 33.7767 32.5266 38.8259V58H20.5149V19.2764H32.0476V24.5586H32.2159C33.8212 21.5161 37.7427 18.3054 43.5932 18.3054C55.7629 18.3054 58 26.3194 58 36.7285V58H57.9871Z" fill="black"/>
</svg>
