<svg xmlns="http://www.w3.org/2000/svg" xmlns:xlink="http://www.w3.org/1999/xlink" width="40" zoomAndPan="magnify" viewBox="0 0 30 30.000001" height="40" preserveAspectRatio="xMidYMid meet" version="1.0"><defs><clipPath id="4d4111d494"><path d="M 0.484375 0 L 29.515625 0 L 29.515625 29.03125 L 0.484375 29.03125 Z M 0.484375 0 " clip-rule="nonzero"/></clipPath><clipPath id="325947430b"><path d="M 1.644531 0 L 28 0 L 28 29.03125 L 1.644531 29.03125 Z M 1.644531 0 " clip-rule="nonzero"/></clipPath></defs><g clip-path="url(#4d4111d494)"><path fill="#ffffff" d="M 0.484375 0 L 29.515625 0 L 29.515625 36.289062 L 0.484375 36.289062 Z M 0.484375 0 " fill-opacity="1" fill-rule="nonzero"/><path fill="#ffffff" d="M 0.484375 0 L 29.515625 0 L 29.515625 29.03125 L 0.484375 29.03125 Z M 0.484375 0 " fill-opacity="1" fill-rule="nonzero"/><path fill="#ffffff" d="M 0.484375 0 L 29.515625 0 L 29.515625 29.03125 L 0.484375 29.03125 Z M 0.484375 0 " fill-opacity="1" fill-rule="nonzero"/></g><g clip-path="url(#325947430b)"><path fill="#01435a" d="M 4.375 23.859375 C 4.375 23.859375 3.78125 23.546875 3.097656 23.914062 C 3.097656 23.914062 3.773438 23.40625 4.410156 23.515625 C 4.410156 23.515625 4.105469 22.695312 2.785156 22.570312 C 2.785156 22.570312 3.878906 22.25 4.710938 22.855469 C 4.710938 22.855469 3.40625 20.753906 3.820312 19.09375 C 3.820312 19.09375 4.273438 19.949219 5.03125 20.101562 C 5.03125 20.101562 4.078125 18.320312 4.484375 17.269531 C 4.890625 16.214844 7.144531 14.667969 7.144531 14.667969 C 7.144531 14.667969 7.292969 15.8125 8.367188 16.882812 C 8.367188 16.882812 7.777344 15.300781 7.929688 14.085938 C 8.082031 12.871094 12.261719 11.605469 12.261719 11.605469 C 12.261719 11.605469 12.289062 13.039062 13.253906 13.683594 C 13.253906 13.683594 12.84375 11.527344 13.515625 11.183594 C 14.1875 10.84375 18.460938 9.269531 19.234375 7.886719 L 19.449219 10.054688 C 19.449219 10.054688 19.351562 8.597656 20.308594 7.71875 C 21.269531 6.839844 23.738281 5.539062 23.945312 3.871094 L 24.289062 5.582031 L 24.449219 3.671875 C 24.449219 3.671875 26.886719 1.949219 26.441406 0 C 26.441406 0 28.5 2.621094 26.652344 7.8125 L 23.441406 9.203125 L 26.136719 8.636719 C 26.136719 8.636719 24.5 12.273438 19.367188 12.675781 C 19.367188 12.675781 20.46875 12.953125 22.675781 12.28125 C 22.675781 12.28125 20.820312 16.464844 14.160156 16.820312 L 17.539062 16.960938 C 17.539062 16.960938 15.089844 21.523438 9.5 20.609375 C 9.5 20.609375 10.730469 21.492188 12.125 21.257812 C 12.125 21.257812 10.375 23.382812 7.007812 22.351562 C 7.007812 22.351562 7.546875 22.527344 7.613281 23.179688 C 7.613281 23.179688 6.988281 22.480469 6.3125 22.667969 C 6.3125 22.667969 6.820312 22.953125 6.660156 23.664062 C 6.660156 23.664062 6.496094 23.039062 5.808594 23.058594 L 1.644531 29.03125 C 1.644531 29.03125 1.8125 28.132812 2.175781 27.484375 C 2.535156 26.832031 5.640625 21.808594 10.527344 18.074219 C 15.414062 14.339844 20.742188 11.585938 21.910156 9.246094 C 21.910156 9.246094 19.878906 11.484375 15.792969 13.835938 C 11.703125 16.1875 6.507812 20.351562 4.375 23.859375 " fill-opacity="1" fill-rule="nonzero"/></g></svg>