<svg width="201" height="99" viewBox="0 0 201 99" fill="none" xmlns="http://www.w3.org/2000/svg">
<g clip-path="url(#clip0_168_5150)">
<mask id="mask0_168_5150" style="mask-type:luminance" maskUnits="userSpaceOnUse" x="1" y="0" width="199" height="98">
<path d="M1.31897 0H199.648V97.7006H1.31897V0Z" fill="white"/>
</mask>
<g mask="url(#mask0_168_5150)">
<path d="M1.31897 0H199.659V117.233H1.31897V0Z" fill="white"/>
<path d="M1.31897 0H199.659V97.7006H1.31897V0Z" fill="white"/>
<path d="M1.31897 0H199.659V97.7006H1.31897V0Z" fill="#01435A"/>
</g>
<mask id="mask1_168_5150" style="mask-type:luminance" maskUnits="userSpaceOnUse" x="88" y="1" width="38" height="42">
<path d="M88.4929 1.34082H125.946V42.3743H88.4929V1.34082Z" fill="white"/>
</mask>
<g mask="url(#mask1_168_5150)">
<path d="M92.3135 35.0627C92.3135 35.0627 91.4866 34.6193 90.5236 35.1349C90.5236 35.1349 91.4761 34.4233 92.3659 34.578C92.3659 34.578 91.9367 33.4127 90.0839 33.2374C90.0839 33.2374 91.6227 32.7836 92.7846 33.6396C92.7846 33.6396 90.9632 30.6696 91.5389 28.3286C91.5389 28.3286 92.1774 29.5352 93.2451 29.7414C93.2451 29.7414 91.9053 27.2355 92.4705 25.7505C93.0463 24.2552 96.2075 22.0689 96.2075 22.0689C96.2075 22.0689 96.4168 23.688 97.9241 25.1936C97.9241 25.1936 97.0972 22.9661 97.3066 21.2439C97.5159 19.5321 103.388 17.7377 103.388 17.7377C103.388 17.7377 103.42 19.7693 104.78 20.6768C104.78 20.6768 104.205 17.6346 105.147 17.1499C106.089 16.6652 112.087 14.448 113.165 12.4886L113.468 15.5514C113.468 15.5514 113.332 13.4889 114.683 12.2514C116.023 11.0036 119.487 9.16801 119.78 6.80645L120.262 9.22989L120.492 6.52801C120.492 6.52801 123.905 4.09426 123.277 1.34082C123.277 1.34082 126.176 5.04301 123.58 12.3855L119.079 14.3449L122.858 13.5508C122.858 13.5508 120.566 18.6864 113.353 19.2536C113.353 19.2536 114.903 19.6455 118.001 18.6968C118.001 18.6968 115.395 24.6058 106.047 25.1111L110.789 25.3174C110.789 25.3174 107.355 31.7524 99.5047 30.4633C99.5047 30.4633 101.242 31.7111 103.2 31.3811C103.2 31.3811 100.74 34.3821 96.0086 32.928C96.0086 32.928 96.7727 33.1755 96.8565 34.0933C96.8565 34.0933 95.9876 33.1136 95.0351 33.3818C95.0351 33.3818 95.7469 33.7736 95.5271 34.7843C95.5271 34.7843 95.2968 33.8974 94.3233 33.9283L88.4929 42.3743C88.4929 42.3743 88.7231 41.0955 89.2256 40.1777C89.7385 39.2599 94.093 32.1649 100.949 26.8849C107.806 21.6049 115.29 17.7171 116.923 14.4068C116.923 14.4068 114.076 17.5727 108.339 20.8933C102.603 24.2139 95.3072 30.1024 92.3135 35.0627Z" fill="white"/>
</g>
<path d="M15.9463 78.7102C15.1612 78.7102 14.439 78.4833 13.7691 78.0502C13.0991 77.6377 12.7642 76.8952 12.7642 75.8227C12.7642 75.1936 12.9003 74.3686 13.1829 73.3477C13.455 72.3061 13.8947 70.8727 14.4809 69.0577C15.4229 66.067 16.1347 63.5611 16.6162 61.5502C17.1187 59.5186 17.3699 57.5695 17.3699 55.6927C17.3699 54.5377 17.328 53.6302 17.2443 52.9702C17.1815 52.3102 17.0035 51.7636 16.7 51.3202C16.386 50.8561 15.8835 50.6189 15.1927 50.6189C14.3552 50.6189 13.6435 50.9489 13.0573 51.6089C12.492 52.2483 12.0733 53.032 11.8012 53.9602C11.5499 54.8986 11.4243 55.8061 11.4243 56.6827C11.4243 57.487 11.529 58.1264 11.7593 58.6214C10.8591 58.6214 10.2101 58.3945 9.79138 57.9202C9.37268 57.4252 9.16333 56.7961 9.16333 56.0227C9.16333 55.0327 9.46689 54.0427 10.0845 53.0527C10.6916 52.0627 11.5185 51.2583 12.5548 50.6189C13.612 49.9589 14.7111 49.6289 15.8626 49.6289C17.3385 49.6289 18.4585 50.2064 19.2122 51.3614C19.9659 52.4958 20.3427 54.0427 20.3427 56.0227C20.3427 57.7861 20.0915 59.6423 19.589 61.5914C19.1075 63.5508 18.4271 65.8814 17.5374 68.6039C16.8884 70.5014 16.4174 72.0483 16.1138 73.2239C15.7998 74.4098 15.6532 75.3998 15.6532 76.1939C15.6532 76.627 15.716 76.9777 15.8626 77.2252C15.9987 77.4727 16.2603 77.5964 16.6581 77.5964C17.998 77.5964 19.6937 76.328 21.7663 73.8014C23.8598 71.2748 25.6707 68.2945 27.2094 64.8502C28.7691 61.4161 29.5542 58.4564 29.5542 55.9814C29.5542 54.8264 29.3657 53.9602 29.0099 53.3827C28.6435 52.8052 28.1515 52.4236 27.5444 52.2277C27.8794 51.6811 28.2248 51.2686 28.5911 50.9902C28.947 50.6911 29.3029 50.5364 29.6379 50.5364C30.2241 50.5364 30.737 50.8973 31.1871 51.6089C31.6581 52.2998 31.8989 53.2795 31.8989 54.5377C31.8989 57.1261 30.9778 60.3539 29.1355 64.2314C27.3141 68.1089 25.1369 71.4914 22.6037 74.3789C20.0915 77.2664 17.8724 78.7102 15.9463 78.7102Z" fill="white"/>
<path d="M33.1051 77.2663C32.2886 77.2663 31.6397 76.9982 31.1372 76.4826C30.6348 75.9566 30.3835 75.2348 30.3835 74.2963C30.3835 72.8732 30.9069 71.2748 31.9327 69.5113C32.99 67.7582 34.2984 66.2732 35.8686 65.0563C37.4596 63.8188 39.0088 63.2001 40.5162 63.2001C41.4582 63.2001 42.2538 63.4682 42.9028 63.9838C43.5413 64.4788 43.8658 65.1285 43.8658 65.9226C43.8658 66.4795 43.6983 66.8713 43.3633 67.1188C43.0493 67.3457 42.6201 67.4488 42.0654 67.4488C42.17 67.0363 42.2328 66.6238 42.2328 66.2113C42.2328 65.6132 42.0758 65.1285 41.7723 64.7676C41.4896 64.386 41.0605 64.1901 40.4743 64.1901C39.3857 64.1901 38.2342 64.7882 37.0409 65.9638C35.8686 67.1188 34.8846 68.5213 34.11 70.1713C33.3249 71.8007 32.9376 73.2032 32.9376 74.3788C32.9376 75.3173 33.2517 75.7813 33.9007 75.7813C34.8741 75.7813 36.0151 75.0285 37.334 73.5126C38.6739 71.976 40.0975 70.1198 41.6048 67.9438C41.9083 67.9748 42.2328 68.0676 42.5678 68.2326C42.9028 68.3976 43.0702 68.6038 43.0702 68.8513C43.0702 69.0473 42.9446 69.3463 42.6934 69.7588C42.4631 70.1713 42.327 70.4188 42.2747 70.5013C41.856 71.1923 41.521 71.811 41.2698 72.3576C41.0395 72.8835 40.9349 73.3785 40.9349 73.8426C40.9349 74.2551 41.0291 74.6263 41.228 74.9563C41.4478 75.2863 41.7723 75.4513 42.191 75.4513C42.8818 75.4513 43.7611 74.9563 44.8288 73.9663C45.9174 72.9557 46.9851 71.5326 48.0528 69.7176L48.3878 70.0888C47.8853 71.3573 47.2259 72.502 46.4199 73.5126C45.6034 74.5026 44.7451 75.276 43.8239 75.8226C42.9028 76.3691 42.0026 76.6476 41.1442 76.6476C40.3068 76.6476 39.6473 76.4001 39.1763 75.9051C38.7262 75.4101 38.5064 74.8223 38.5064 74.1313C38.5064 73.8323 38.5483 73.492 38.632 73.1001C37.5434 74.5335 36.5594 75.5751 35.7011 76.2351C34.8323 76.9157 33.9635 77.2663 33.1051 77.2663ZM42.1072 60.8076C41.9083 60.7251 41.7723 60.591 41.6885 60.3951C41.6048 60.1785 41.5629 60.0032 41.5629 59.8588C41.5629 59.5907 41.7827 59.0751 42.2328 58.3326C42.7039 57.5901 43.2377 56.9301 43.8239 56.3526C44.431 55.7751 44.9544 55.4863 45.3731 55.4863C45.8442 55.4863 46.1058 55.8782 46.1686 56.6413C44.3787 58.1573 43.0284 59.5495 42.1072 60.8076Z" fill="white"/>
<path d="M48.8767 85.6812C48.2068 85.6812 47.6625 85.4956 47.2438 85.145C46.8041 84.815 46.5739 84.3406 46.5739 83.7425C46.5739 82.7731 46.8879 81.9275 47.495 81.185C48.1021 80.4631 48.8558 79.8341 49.756 79.2875C50.6771 78.7616 51.9751 78.0706 53.6499 77.225C54.3722 75.3894 55.0526 73.1825 55.7016 70.625C54.8328 72.0584 53.9535 73.1825 53.0638 74.0075C52.1949 74.8119 51.2843 75.2037 50.3422 75.2037C49.5571 75.2037 48.8767 74.9562 48.2905 74.4612C47.7044 73.9662 47.4113 73.2444 47.4113 72.275C47.4113 71.4294 47.5997 70.3775 47.9974 69.14C48.3847 67.8819 48.8348 66.7784 49.3373 65.84C49.8607 64.9119 50.3003 64.4375 50.6353 64.4375C50.8551 64.4375 51.1796 64.5406 51.5983 64.7262C52.0379 64.8912 52.2682 65.0769 52.2682 65.2625C51.7658 65.9534 51.2319 67.0775 50.6771 68.645C50.1119 70.1919 49.8397 71.4087 49.8397 72.3162C49.8397 73.2856 50.2794 73.76 51.1796 73.76C51.8181 73.76 52.5822 73.3269 53.4825 72.44C54.3722 71.5634 55.2201 70.46 56.0365 69.14C56.1412 68.7584 56.2668 68.2119 56.4134 67.49C56.4971 67.0569 56.6855 66.6444 56.9996 66.2525C57.3031 65.8709 57.7218 65.675 58.2557 65.675C58.4755 65.675 58.7372 65.7059 59.0512 65.7575C59.0512 66.4175 58.7686 67.7684 58.2138 69.8C57.6486 71.8109 56.9682 73.8322 56.1622 75.8637C57.3869 75.3997 58.5278 74.6572 59.5955 73.6362C60.6841 72.5947 61.5634 71.285 62.2333 69.7175L62.6939 70.0887C61.7937 72.8937 59.4908 75.1522 55.7853 76.8537C54.6967 79.4319 53.5662 81.5562 52.3938 83.2062C51.2215 84.8562 50.0491 85.6812 48.8767 85.6812ZM48.6674 84.5262C48.9395 84.5262 49.3164 84.2891 49.7979 83.825C50.3003 83.3816 50.8446 82.6803 51.4308 81.7212C52.0379 80.7519 52.6555 79.5453 53.2731 78.0912C51.9856 78.7719 50.9702 79.3494 50.2166 79.8237C49.4838 80.2878 48.8872 80.8137 48.4161 81.3912C47.9346 81.9894 47.7044 82.6803 47.7044 83.4537C47.7044 83.6703 47.7881 83.9075 47.9556 84.155C48.1231 84.4025 48.3533 84.5262 48.6674 84.5262Z" fill="white"/>
<path d="M79.0086 78.7099C77.3862 78.7099 76.0358 78.2974 74.9472 77.4724C73.8586 76.668 73.0631 75.6162 72.5606 74.2962C72.0582 72.9555 71.8069 71.4912 71.8069 69.9237C71.8069 66.8505 72.5711 63.7259 74.1098 60.5599C75.6381 57.4043 77.585 54.8055 79.9298 52.7637C82.2745 50.7012 84.5774 49.6699 86.8384 49.6699C87.8956 49.6699 88.7225 49.9174 89.3087 50.4124C89.9159 50.9074 90.2299 51.6912 90.2299 52.7637C90.2299 53.7021 89.9996 54.7849 89.56 56.0224C89.1098 57.2393 88.5551 58.2809 87.8851 59.1574C87.2362 60.0134 86.5976 60.4362 85.9591 60.4362C85.4776 60.4362 85.1008 60.168 84.8286 59.6112C85.7498 58.6005 86.629 57.3734 87.4664 55.9399C88.3248 54.4859 88.7644 53.2896 88.7644 52.3512C88.7644 51.8562 88.6074 51.4746 88.3038 51.1962C88.0212 50.8971 87.5711 50.7424 86.964 50.7424C85.2892 50.7424 83.4888 51.8149 81.5627 53.9599C79.6367 56.1049 78.0142 58.7449 76.7058 61.8799C75.3869 65.0149 74.7379 67.9024 74.7379 70.5424C74.7379 72.5018 75.1566 74.1518 75.994 75.4924C76.8523 76.8124 78.1503 77.4724 79.8879 77.4724C81.144 77.4724 82.4106 77.1115 83.6981 76.3999C85.0066 75.709 86.1894 74.7809 87.2571 73.5949C88.3457 72.4193 89.2041 71.1199 89.853 69.7174L90.3555 70.0887C89.0366 72.6462 87.3932 74.7293 85.4148 76.3174C83.4574 77.9055 81.322 78.7099 79.0086 78.7099Z" fill="white"/>
<path d="M107.742 70.0477C107.208 71.347 106.538 72.4814 105.732 73.4714C104.916 74.4614 104.036 75.2348 103.094 75.7814C102.142 76.3589 101.231 76.6477 100.373 76.6477C98.6664 76.6477 97.8185 75.7608 97.8185 74.0077C97.8185 73.5127 97.9023 72.9145 98.0697 72.1927C97.2847 73.5745 96.4996 74.6573 95.725 75.4514C94.9399 76.2455 94.1339 76.6477 93.2965 76.6477C92.48 76.6477 91.8101 76.2867 91.2867 75.5752C90.7843 74.8945 90.5331 74.0386 90.5331 73.0177C90.5331 72.1411 90.711 71.0377 91.0774 69.7177C91.4647 68.3977 91.9253 67.2633 92.4591 66.2939C92.9825 65.3348 93.4221 64.8502 93.7571 64.8502C93.8932 64.8502 94.1025 64.9223 94.3851 65.0564C94.6573 65.2008 94.8981 65.3658 95.0969 65.5514C94.5945 66.3558 94.0607 67.4902 93.5059 68.9752C92.9406 70.4395 92.6685 71.7183 92.6685 72.8114C92.6685 73.3683 92.7522 73.9045 92.9197 74.4202C93.1081 74.9461 93.464 75.2039 93.9664 75.2039C94.8248 75.2039 95.7669 74.4408 96.7718 72.8939C97.7766 71.3573 98.8653 69.3877 100.038 66.9952L100.624 65.7989C101.043 65.7989 101.357 65.8402 101.587 65.9227C101.838 66.0052 102.1 66.1289 102.382 66.2939C102.822 66.5414 103.304 66.6652 103.806 66.6652C104.162 66.6652 104.444 66.5827 104.643 66.4177C104.832 66.232 104.936 65.9948 104.936 65.7164C104.936 65.2833 104.811 64.9223 104.56 64.6439C104.329 64.3448 104.015 64.0458 103.597 63.7364C104.036 63.2723 104.56 63.0352 105.146 63.0352C105.617 63.0352 106.025 63.262 106.36 63.6952C106.695 64.1077 106.862 64.6645 106.862 65.3452C106.862 66.0361 106.632 66.6239 106.193 67.1189C105.742 67.5933 105.167 67.8202 104.476 67.8202C104.078 67.8202 103.722 67.7583 103.387 67.6139C103.073 67.4798 102.717 67.2839 102.299 67.0364C102.236 67.2014 102.173 67.3664 102.089 67.5314C102.006 67.6964 101.922 67.8614 101.838 68.0264C101.22 69.4908 100.749 70.6973 100.414 71.6564C100.1 72.5948 99.9539 73.4198 99.9539 74.1314C99.9539 75.1008 100.341 75.5752 101.126 75.5752C101.681 75.5752 102.32 75.3483 103.052 74.8739C103.775 74.4098 104.518 73.7395 105.271 72.8527C106.025 71.9452 106.674 70.9036 107.239 69.7177L107.742 70.0477Z" fill="white"/>
<path d="M116.678 72.44C117.369 72.44 118.101 72.2337 118.855 71.8212C119.63 71.3881 120.216 70.7281 120.614 69.8412L121.032 70.2125C120.551 71.2643 119.881 72.0481 119.023 72.5637C118.185 73.0587 117.316 73.3062 116.427 73.3062C115.757 73.3062 115.171 73.1825 114.668 72.935C113.799 74.0693 112.868 74.9768 111.863 75.6575C110.879 76.369 109.947 76.73 109.057 76.73C108.053 76.73 107.309 76.4206 106.838 75.8225C106.399 75.2243 106.168 74.42 106.168 73.43C106.168 72.4709 106.378 71.45 106.796 70.3775C107.215 69.2843 107.739 68.3768 108.388 67.655C109.057 66.9434 109.727 66.5825 110.397 66.5825C110.617 66.5825 110.868 66.6443 111.151 66.7475C110.868 66.995 110.523 67.5312 110.104 68.3562C109.686 69.1606 109.319 70.0268 109.016 70.955C108.702 71.8625 108.555 72.605 108.555 73.1825C108.555 74.5643 108.995 75.245 109.895 75.245C110.397 75.245 110.994 74.9872 111.695 74.4612C112.418 73.9456 113.119 73.2443 113.789 72.3575C113.119 71.8109 112.585 71.0993 112.198 70.2125C111.8 69.305 111.612 68.3768 111.612 67.4075C111.612 66.17 111.926 65.1181 112.575 64.2312C113.244 63.3237 114.124 62.87 115.212 62.87H115.254C115.924 62.87 116.489 63.035 116.971 63.365C117.274 63.5093 117.515 63.6021 117.683 63.6537C117.871 63.7156 118.112 63.7362 118.395 63.7362C118.75 63.7362 119.033 63.6537 119.232 63.4887C119.42 63.3031 119.525 63.0659 119.525 62.7875C119.525 62.3543 119.399 61.9934 119.148 61.715C118.918 61.4159 118.604 61.1271 118.185 60.8487C118.625 60.3537 119.148 60.1062 119.734 60.1062C120.205 60.1062 120.614 60.3331 120.949 60.7662C121.284 61.2096 121.451 61.7562 121.451 62.4162C121.451 63.1071 121.221 63.695 120.781 64.19C120.331 64.6643 119.755 64.8912 119.064 64.8912C118.562 64.8912 118.08 64.7881 117.641 64.5612C117.693 64.8706 117.725 65.2418 117.725 65.675C117.725 66.5825 117.494 67.6137 117.055 68.7687C116.605 69.9031 116.018 70.9962 115.296 72.0687C115.736 72.3162 116.196 72.44 116.678 72.44ZM114.459 71.4087C115.097 70.4806 115.6 69.5318 115.966 68.5625C116.353 67.6034 116.552 66.7062 116.552 65.8812C116.552 65.2006 116.448 64.685 116.259 64.355C116.06 64.025 115.799 63.86 115.464 63.86C115.129 63.86 114.773 64.025 114.417 64.355C114.082 64.685 113.789 65.1387 113.538 65.7162C113.307 66.2731 113.203 66.8712 113.203 67.5312C113.203 68.2737 113.297 68.9956 113.496 69.6762C113.716 70.3671 114.04 70.9446 114.459 71.4087ZM114.668 60.3125C114.469 60.23 114.333 60.0959 114.249 59.9C114.166 59.6834 114.124 59.5081 114.124 59.3637C114.124 59.0956 114.344 58.58 114.794 57.8375C115.265 57.095 115.799 56.435 116.385 55.8575C116.992 55.28 117.515 54.9912 117.934 54.9912C118.405 54.9912 118.667 55.3831 118.729 56.1462C116.94 57.6621 115.589 59.0543 114.668 60.3125Z" fill="white"/>
<path d="M126.923 59.9827C126.473 59.9827 126.106 59.8899 125.834 59.6939C125.552 59.5083 125.416 59.2196 125.416 58.8277C125.416 58.3327 125.709 57.8996 126.295 57.5077C126.881 57.1261 127.478 56.9302 128.095 56.9302C128.901 56.9302 129.309 57.3014 129.309 58.0439C129.309 58.5183 129.058 58.9514 128.556 59.3639C128.053 59.7764 127.509 59.9827 126.923 59.9827ZM122.527 76.5239C121.626 76.5239 120.935 76.2352 120.433 75.6577C119.951 75.1111 119.721 74.3789 119.721 73.4714C119.721 72.5433 119.983 71.2439 120.517 69.5939C121.072 67.9439 121.752 66.5002 122.568 65.2627C123.406 64.0046 124.201 63.3652 124.955 63.3652C125.175 63.3652 125.374 63.4374 125.541 63.5714C125.709 63.7158 125.792 63.9014 125.792 64.1489C125.792 64.4789 125.395 65.2936 124.62 66.5827C123.804 67.9027 123.165 69.0886 122.694 70.1302C122.212 71.1821 121.982 72.1721 121.982 73.1002C121.982 73.9252 122.118 74.4924 122.401 74.7914C122.673 75.1008 123.134 75.2452 123.783 75.2452C125.677 75.2452 127.551 73.4096 129.393 69.7177L129.728 70.0889C129.058 72.1308 128.053 73.7086 126.714 74.8327C125.374 75.9567 123.971 76.5239 122.527 76.5239Z" fill="white"/>
<path d="M145.908 78.7102C145.123 78.7102 144.401 78.4833 143.731 78.0502C143.061 77.6377 142.726 76.8952 142.726 75.8227C142.726 75.1936 142.862 74.3686 143.145 73.3477C143.417 72.3061 143.856 70.8727 144.443 69.0577C145.385 66.067 146.097 63.5611 146.578 61.5502C147.08 59.5186 147.332 57.5695 147.332 55.6927C147.332 54.5377 147.29 53.6302 147.206 52.9702C147.143 52.3102 146.965 51.7636 146.662 51.3202C146.348 50.8561 145.845 50.6189 145.154 50.6189C144.317 50.6189 143.605 50.9489 143.019 51.6089C142.454 52.2483 142.035 53.032 141.763 53.9602C141.512 54.8986 141.386 55.8061 141.386 56.6827C141.386 57.487 141.491 58.1264 141.721 58.6214C140.821 58.6214 140.172 58.3945 139.753 57.9202C139.334 57.4252 139.125 56.7961 139.125 56.0227C139.125 55.0327 139.429 54.0427 140.046 53.0527C140.653 52.0627 141.48 51.2583 142.517 50.6189C143.574 49.9589 144.673 49.6289 145.824 49.6289C147.3 49.6289 148.42 50.2064 149.174 51.3614C149.928 52.4958 150.304 54.0427 150.304 56.0227C150.304 57.7861 150.053 59.6423 149.551 61.5914C149.069 63.5508 148.389 65.8814 147.499 68.6039C146.85 70.5014 146.379 72.0483 146.076 73.2239C145.762 74.4098 145.615 75.3998 145.615 76.1939C145.615 76.627 145.678 76.9777 145.824 77.2252C145.96 77.4727 146.222 77.5964 146.62 77.5964C147.96 77.5964 149.656 76.328 151.728 73.8014C153.822 71.2748 155.632 68.2945 157.171 64.8502C158.731 61.4161 159.516 58.4564 159.516 55.9814C159.516 54.8264 159.328 53.9602 158.972 53.3827C158.605 52.8052 158.113 52.4236 157.506 52.2277C157.841 51.6811 158.187 51.2686 158.553 50.9902C158.909 50.6911 159.265 50.5364 159.6 50.5364C160.186 50.5364 160.699 50.8973 161.149 51.6089C161.62 52.2998 161.861 53.2795 161.861 54.5377C161.861 57.1261 160.94 60.3539 159.097 64.2314C157.276 68.1089 155.099 71.4914 152.565 74.3789C150.053 77.2664 147.834 78.7102 145.908 78.7102Z" fill="white"/>
<path d="M168.343 59.9827C167.892 59.9827 167.526 59.8899 167.254 59.6939C166.971 59.5083 166.835 59.2196 166.835 58.8277C166.835 58.3327 167.128 57.8996 167.714 57.5077C168.301 57.1261 168.897 56.9302 169.515 56.9302C170.321 56.9302 170.729 57.3014 170.729 58.0439C170.729 58.5183 170.478 58.9514 169.975 59.3639C169.473 59.7764 168.929 59.9827 168.343 59.9827ZM163.946 76.5239C163.046 76.5239 162.355 76.2352 161.853 75.6577C161.371 75.1111 161.141 74.3789 161.141 73.4714C161.141 72.5433 161.402 71.2439 161.936 69.5939C162.491 67.9439 163.172 66.5002 163.988 65.2627C164.825 64.0046 165.621 63.3652 166.375 63.3652C166.594 63.3652 166.793 63.4374 166.961 63.5714C167.128 63.7158 167.212 63.9014 167.212 64.1489C167.212 64.4789 166.814 65.2936 166.04 66.5827C165.223 67.9027 164.585 69.0886 164.114 70.1302C163.632 71.1821 163.402 72.1721 163.402 73.1002C163.402 73.9252 163.538 74.4924 163.821 74.7914C164.093 75.1008 164.553 75.2452 165.202 75.2452C167.097 75.2452 168.971 73.4096 170.813 69.7177L171.148 70.0889C170.478 72.1308 169.473 73.7086 168.133 74.8327C166.793 75.9567 165.391 76.5239 163.946 76.5239Z" fill="white"/>
<path d="M174.054 77.1424C172.631 77.1424 171.521 76.7505 170.747 75.9874C169.993 75.2243 169.616 74.2136 169.616 72.9761C169.616 71.5736 170.098 70.068 171.04 68.4386C171.982 66.7886 173.186 65.4068 174.641 64.2724C176.085 63.1483 177.509 62.5811 178.911 62.5811C180.419 62.5811 181.172 63.3236 181.172 64.8086C181.172 65.9946 180.712 67.098 179.791 68.1086C178.89 69.1296 177.739 69.9649 176.315 70.6249C174.913 71.2643 173.51 71.6458 172.087 71.7799C172.003 72.1924 171.961 72.6358 171.961 73.0999C171.961 73.9558 172.17 74.6674 172.589 75.2449C173.029 75.8224 173.782 76.1111 174.85 76.1111C176.326 76.1111 177.823 75.513 179.33 74.2961C180.837 73.0586 182.073 71.5324 183.057 69.7174L183.475 70.0474C182.491 72.1924 181.141 73.9146 179.414 75.2036C177.676 76.4927 175.897 77.1424 174.054 77.1424ZM172.296 71.1199C173.301 70.7693 174.358 70.2536 175.478 69.5936C176.619 68.9336 177.582 68.1808 178.367 67.3249C179.142 66.4483 179.539 65.5305 179.539 64.5611C179.539 64.2621 179.477 64.0455 179.372 63.9011C179.288 63.7671 179.089 63.6949 178.786 63.6949C178.032 63.6949 177.205 64.0868 176.315 64.8499C175.415 65.5924 174.599 66.5411 173.845 67.6961C173.112 68.8511 172.599 69.9958 172.296 71.1199ZM183.266 60.8074C182.952 60.1783 182.596 59.6318 182.177 59.1574C181.759 58.6624 181.225 58.1055 180.586 57.4661C179.749 57.7755 179.037 58.0849 178.451 58.4149C177.865 58.7243 177.32 59.0955 176.818 59.5286C176.567 59.3946 176.441 59.178 176.441 58.8686C176.441 58.4355 176.703 57.9611 177.237 57.4661C177.76 56.9711 178.367 56.5586 179.037 56.2286C179.728 55.878 180.262 55.6924 180.628 55.6924C181.015 55.6924 181.466 55.9296 181.968 56.3936C182.491 56.8371 182.941 57.3733 183.308 58.0024C183.695 58.6108 183.894 59.178 183.894 59.6936C183.894 60.2196 183.685 60.5908 183.266 60.8074ZM173.217 83.3711C172.798 83.3711 172.442 83.2577 172.17 83.0411C171.888 82.8452 171.752 82.5564 171.752 82.1749C171.752 81.6799 172.003 81.2674 172.505 80.9374C173.029 80.6074 173.573 80.4424 174.138 80.4424C174.997 80.4424 175.436 80.8239 175.436 81.5974C175.436 82.0614 175.195 82.4739 174.724 82.8349C174.274 83.1855 173.772 83.3711 173.217 83.3711Z" fill="white"/>
<path d="M185.391 77.225C183.234 77.225 182.167 76.039 182.167 73.6775C182.167 72.6359 182.345 71.3572 182.711 69.8412C183.098 68.3047 183.611 66.6856 184.26 64.9737C183.674 64.8912 183.234 64.7984 182.962 64.685V64.025C183.821 64.1384 184.354 64.19 184.553 64.19C185.642 61.4469 186.793 59.0647 188.029 57.0537C189.253 55.0531 190.216 54.0425 190.918 54.0425C191.106 54.0425 191.294 54.125 191.462 54.29C191.629 54.4344 191.713 54.6097 191.713 54.8262C191.713 55.1562 191.556 55.6306 191.253 56.2287C190.939 56.8372 190.426 57.755 189.703 58.9925C189.557 59.24 189.169 59.9206 188.531 61.0137C187.913 62.0862 187.338 63.1794 186.814 64.2725H188.196C190.206 64.2725 191.943 64.2106 193.43 64.0662V64.7262C190.75 65.0047 188.594 65.1387 186.982 65.1387H186.437C185.098 68.1912 184.428 70.8209 184.428 73.0175C184.428 74.0694 184.574 74.8119 184.888 75.245C185.192 75.6781 185.726 75.905 186.479 75.905C187.704 75.905 188.929 75.3584 190.164 74.255C191.389 73.1619 192.477 71.6459 193.43 69.7175L193.89 70.0887C192.99 72.1822 191.776 73.9044 190.248 75.245C188.709 76.565 187.086 77.225 185.391 77.225Z" fill="white"/>
</g>
<defs>
<clipPath id="clip0_168_5150">
<rect width="200.977" height="99" fill="white"/>
</clipPath>
</defs>
</svg>
