<svg width="300" height="371" viewBox="0 0 300 371" fill="none" xmlns="http://www.w3.org/2000/svg">
<g clip-path="url(#clip0_347_2152)">
<mask id="mask0_347_2152" style="mask-type:luminance" maskUnits="userSpaceOnUse" x="0" y="0" width="300" height="370">
<path d="M0.267517 0.5H299.57V369.833H0.267517V0.5Z" fill="white"/>
</mask>
<g mask="url(#mask0_347_2152)">
<path d="M0.267517 0.5H299.731V379.818H0.267517V0.5Z" fill="white"/>
<path d="M0.267517 0.5H299.731V369.833H0.267517V0.5Z" fill="white"/>
<path d="M0.267517 0.5H299.731V369.833H0.267517V0.5Z" fill="white"/>
</g>
<path d="M87.3924 15.5416C89.9029 18.8853 90.3195 23.0624 89.4862 26.8228C88.6477 29.328 87.3924 31.8332 88.6477 34.3436C89.0643 35.177 89.9029 35.5936 90.7362 36.8489C91.1581 37.6822 92.4133 40.1926 91.5747 41.0259C90.7362 41.8645 88.6477 41.0259 88.6477 41.0259C88.6477 42.6978 88.231 43.5312 87.8091 44.3697C87.3924 45.203 86.9758 45.6197 86.9758 46.4582C86.9758 47.2916 86.9758 48.1301 86.9758 48.5468C87.3924 50.6353 86.9758 51.8905 86.1372 54.3957C85.7206 56.0676 85.3039 57.3228 84.4654 57.3228C83.6268 57.7395 82.7935 56.9009 81.5383 56.0676C79.8664 54.8124 77.356 55.2291 75.6841 56.9009C74.007 58.1562 73.1737 60.2447 72.3352 61.9166C71.0799 64.8384 69.4081 67.7655 68.1529 70.6926C67.3195 72.3593 66.481 74.0312 65.2258 74.4478C63.9706 74.8697 62.7154 74.8697 61.4602 74.8697C58.9549 74.4478 56.4445 74.0312 54.3508 72.3593C52.2622 70.6926 51.4237 68.1822 50.5904 65.677C49.3352 62.7499 48.4966 59.4114 49.3352 56.0676C49.7518 53.5624 51.4237 51.4739 52.2622 48.9634C53.9341 44.3697 52.6789 39.7707 52.6789 34.7603C52.6789 28.4947 55.1893 22.2239 59.3716 17.2134C63.1372 13.0364 68.5695 9.69261 74.4289 8.85406C79.0279 8.4374 84.882 11.7811 87.3924 15.5416Z" fill="#F4B6A2"/>
<path d="M73.1737 0.916824C78.6112 1.33349 84.0487 3.00537 87.8092 6.76578C91.5748 10.5262 94.0852 15.9585 93.2467 21.3908C93.2467 22.2241 92.83 23.0627 92.4133 23.896C91.9915 24.7345 91.1581 25.1512 89.9029 24.7345C88.6477 24.3127 87.8092 23.0627 86.554 23.0627C84.8821 23.0627 84.0487 24.7345 82.3717 25.1512C79.8665 25.5679 78.6112 21.3908 76.5175 21.8074C74.8456 21.8074 74.429 23.896 72.7571 24.7345C71.5019 25.1512 70.2467 25.1512 68.9915 25.1512C67.3196 25.5679 65.6425 26.4012 64.8092 28.0731C63.5539 29.3283 63.1373 31.0002 61.8821 32.672C59.3717 36.4324 56.0227 39.771 51.8404 41.4429C50.5904 37.6824 48.08 34.3439 46.4081 31.0002C44.3144 25.9845 43.8977 20.1356 45.9862 15.5418C50.5904 4.67724 62.7154 0.500158 73.1737 0.916824Z" fill="#353535"/>
<path d="M75.6841 83.6408C74.8456 97.4272 72.7571 109.13 70.2466 119.156C67.3196 117.485 64.8091 115.813 62.2987 113.307L61.0435 112.052C57.2779 108.292 53.9341 103.698 51.4237 98.6825C50.1685 96.1772 47.6581 88.2397 42.2258 72.3595C41.3873 69.4377 40.1321 64.8387 41.8039 61.0835C43.0591 58.9897 45.1529 57.3231 45.9862 56.9012C46.4081 56.9012 46.4081 56.9012 46.4081 56.9012H46.8248C47.6581 56.4845 48.4966 56.0679 48.9133 56.0679C49.7518 57.7397 51.0071 59.8283 52.2623 61.5002C55.606 66.5106 59.3716 70.271 62.7154 72.7814C62.7154 72.7814 63.1373 72.7814 63.1373 73.1981C63.1373 73.1981 63.1373 73.1981 63.1373 72.7814C63.5539 72.3595 63.5539 71.9429 63.9706 71.9429C65.2258 70.271 66.8977 68.5991 68.1529 66.5106C69.4081 64.422 70.6633 62.7502 71.5018 60.6616C72.3352 60.6616 72.7571 61.0835 73.5904 61.0835C73.5904 61.0835 73.5904 61.0835 74.0071 61.0835C74.0071 61.0835 74.0071 61.0835 74.4289 61.0835C74.4289 61.5002 74.4289 61.5002 74.4289 61.9168C74.4289 62.3335 74.4289 63.172 74.4289 63.5887C75.6841 69.4377 76.1008 76.12 75.6841 83.6408Z" fill="#EAEAEA"/>
<path d="M49.7518 341.844C54.7727 340.589 59.7883 339.755 64.8091 338.5C64.8091 332.235 65.6425 326.386 66.0643 320.537C62.7154 321.37 56.0227 322.625 53.5175 325.547C51.4237 328.052 51.4237 341.422 49.7518 341.844Z" fill="#F4B6A2"/>
<path d="M82.3716 135.448C82.3716 135.031 73.1737 136.703 65.2258 137.958C60.205 138.792 55.606 139.625 54.7727 140.047C51.4237 140.88 48.9133 142.552 45.1529 143.385C40.5487 144.224 35.9498 144.641 31.3508 144.641C26.7466 158.844 24.2414 172.214 22.9862 183.911C21.3091 198.536 21.731 210.651 22.1477 219.01C22.5643 226.531 25.9133 241.151 32.606 271.234C33.856 276.667 35.9498 285.021 40.9706 294.63C43.8977 300.062 47.2414 304.656 49.7519 307.167C49.3352 310.505 48.4966 314.266 47.2414 318.026C45.9862 322.625 44.731 327.219 43.0591 330.979C47.2414 330.979 51.8404 330.562 56.8612 329.724C62.2987 328.891 66.8977 327.635 71.08 326.385C71.9185 323.875 72.7571 319.281 74.0071 313.849C78.1894 292.958 77.356 281.677 79.8664 260.37C81.1216 249.089 81.955 246.167 84.0487 234.469C89.4862 206.891 88.231 152.995 82.3716 135.448ZM56.0227 239.901C56.0227 243.24 55.606 247 55.1894 250.344C54.7727 252.849 53.5175 257.448 53.9341 259.953C52.6789 253.687 51.8404 246.583 51.8404 240.318C51.8404 236.974 51.8404 233.63 52.2623 230.292C52.6789 228.203 52.6789 224.443 53.5175 222.349C53.5175 221.932 53.9341 221.932 53.9341 221.516C54.3508 221.932 54.7727 222.771 55.1894 223.187C57.2779 227.365 56.4446 236.557 56.0227 239.901Z" fill="#D89B98"/>
<path d="M110.814 175.141C111.231 175.557 111.653 176.396 111.653 176.813C112.903 178.901 112.903 180.99 114.997 182.662C117.085 184.333 119.596 184.75 122.106 185.583C123.361 186.005 125.033 186.005 126.288 185.583C127.544 185.167 128.799 183.912 128.799 182.245C128.799 180.573 126.288 180.156 125.872 178.063C125.872 177.229 125.872 176.396 126.288 176.396C126.705 175.974 127.544 176.813 127.96 176.813C128.382 176.396 127.96 175.557 127.96 174.302C127.544 173.052 127.544 172.636 127.127 171.38C126.705 170.547 126.288 169.292 125.45 168.453C125.033 168.453 124.2 168.037 123.361 168.037C121.267 167.62 118.762 167.203 116.669 167.62C115.413 167.62 113.741 167.62 112.903 166.787C111.653 168.453 109.976 169.708 108.304 170.964C108.721 172.214 109.976 173.886 110.814 175.141Z" fill="#F4B6A2"/>
<path d="M199.064 106.62C199.064 107.458 199.481 107.875 199.898 108.292C203.247 112.469 206.59 117.068 209.934 121.245C210.773 122.495 212.028 123.75 213.283 123.333C214.955 123.333 215.794 121.245 216.21 119.99C219.976 108.292 223.736 96.1771 224.575 83.6406C224.575 81.9687 224.575 80.3021 225.413 79.0469C226.247 77.7916 227.502 76.9583 228.34 76.1198C230.429 74.0312 230.846 70.6927 230.429 67.3489C230.012 64.4218 228.34 61.5 226.663 58.9896C225.83 58.1562 224.991 56.901 223.736 56.901C222.064 56.4843 220.392 58.1562 219.554 59.8281C217.044 64.8385 217.882 70.6927 217.465 76.1198C217.044 85.3125 213.7 94.0885 210.356 102.443C209.517 100.354 208.262 98.6823 207.007 98.6823C206.174 98.6823 205.752 99.0989 204.497 99.9375C203.663 100.771 203.247 101.187 202.408 101.609C200.736 105.37 198.642 105.37 199.064 106.62Z" fill="#F4B6A2"/>
<path d="M121.268 106.203C120.851 118.74 122.106 128.349 122.945 135.031C124.2 142.552 123.778 150.49 124.616 158.01C125.033 160.099 125.033 163.026 124.2 166.786C123.778 168.875 122.523 170.964 121.689 173.052C120.851 175.141 120.434 177.229 120.434 179.318C120.434 180.156 120.434 180.99 120.851 181.823C121.268 182.661 122.523 182.661 122.945 182.245C122.945 183.495 122.523 185.167 123.361 186.422C123.778 187.672 125.45 188.51 126.705 188.094C127.96 187.672 128.382 185.583 130.054 185.167C130.471 184.75 131.309 184.75 131.726 184.75C132.564 184.333 132.981 183.495 133.398 182.661C135.908 176.396 133.82 160.932 133.82 160.932C132.981 154.667 134.236 158.01 133.82 141.714C133.398 130.437 132.564 122.495 132.981 117.068C132.981 114.979 132.981 112.885 132.981 110.797C132.981 108.708 133.82 106.62 131.309 106.62C127.544 104.948 124.2 105.786 121.268 106.203Z" fill="#F4B6A2"/>
<path d="M140.929 27.2397C139.252 30.1616 138.835 31.8335 139.252 45.6199C139.674 51.8908 139.674 58.1564 137.163 64.0054C135.908 66.9324 133.82 69.8543 132.564 72.7814C131.309 75.7033 130.887 79.4637 132.981 82.3908C133.398 78.6304 136.747 75.2866 140.507 74.4481C143.434 74.0314 146.366 74.4481 148.872 73.1981C151.382 71.9429 152.637 69.021 152.637 66.5106C152.637 63.5887 152.221 61.0835 151.382 58.5731C149.71 51.4741 148.038 44.3699 148.038 37.2658C148.038 34.3439 148.038 31.4168 148.872 27.6564C150.549 21.8074 153.476 19.3022 152.637 18.4637C152.221 17.2137 144.689 20.5522 140.929 27.2397Z" fill="#353535"/>
<path d="M143.018 238.646C141.346 258.698 143.018 279.172 145.111 299.646C145.111 301.734 145.528 303.823 147.2 305.495C148.872 307.167 152.221 307.167 154.731 306.328C157.236 305.495 159.33 303.823 161.84 303.406C166.856 302.568 172.294 305.078 176.476 302.568C178.57 300.896 179.825 297.974 182.33 296.719C184.84 295.469 187.768 296.302 190.278 294.63C193.205 292.958 194.044 289.198 194.46 286.276C198.226 258.698 199.898 230.708 199.898 203.13C199.898 199.375 199.898 196.031 198.226 192.688C196.132 188.094 191.116 185.167 186.096 183.495C178.986 181.406 166.023 179.318 160.163 185.583C152.637 193.521 149.294 207.729 146.783 218.172C144.689 224.443 143.434 231.542 143.018 238.646Z" fill="#EAEAEA"/>
<path d="M146.366 23.896C142.184 25.9846 139.252 30.5835 139.674 35.1773C140.09 38.1044 141.346 40.6096 141.346 43.5315C141.346 45.62 140.09 48.1304 141.346 50.219C142.184 52.3075 144.689 53.1408 145.528 54.8127C146.366 56.9013 144.689 59.8283 146.783 61.5002C148.038 62.3335 149.71 61.9169 150.965 62.3335C152.637 63.1721 153.054 64.8388 152.637 66.5106C152.221 68.1825 150.549 69.021 149.294 69.8544C148.038 70.271 146.783 70.6929 145.945 71.5263C145.111 72.7815 145.528 74.0315 145.528 75.2867C146.366 79.8804 147.2 84.4794 148.038 89.0731C148.455 91.5783 148.872 94.5054 149.71 97.0106C149.71 97.8492 150.127 98.6825 150.549 99.0992C151.382 99.9377 152.637 100.771 153.893 100.771C157.236 101.188 161.002 99.0992 163.096 96.594C165.184 94.0888 166.856 90.745 168.533 87.4013C171.877 80.3023 175.643 73.6148 179.825 67.3492C175.643 69.021 170.622 67.3492 168.111 64.0054C165.601 60.6617 165.184 56.4846 166.023 52.3075C166.856 48.1304 168.533 44.37 169.783 40.6096C171.038 36.8492 171.877 32.2554 170.622 28.495C166.856 20.1356 153.476 19.719 146.366 23.896Z" fill="#F4B6A2"/>
<path d="M163.512 14.7032C168.95 15.1251 173.549 18.8855 175.643 23.8959C176.898 28.073 176.476 32.672 177.731 36.4324C179.403 41.8647 183.585 45.6199 186.934 49.8022C190.278 53.9793 193.627 59.4116 192.788 64.422C187.768 66.9324 181.913 69.0209 176.476 68.1824C170.622 67.3491 165.184 63.172 164.351 57.7397C163.929 53.9793 165.184 50.6355 165.184 46.8751C165.601 41.8647 163.512 37.2657 161.002 33.0886C159.33 31.0001 157.658 28.9116 155.564 26.823C153.893 25.1511 150.965 23.4793 150.965 20.9741C151.382 16.7918 159.747 14.2866 163.512 14.7032Z" fill="#353535"/>
<path d="M66.8977 123.333C66.8977 121.661 66.4811 120.406 66.4811 119.156C66.0644 117.901 65.6425 117.068 65.6425 116.646C63.9706 112.469 61.8821 111.219 58.5331 106.62C52.679 97.849 51.0071 89.0729 50.1686 85.3125C48.9134 79.0469 50.1686 78.2083 48.4967 65.6771C48.08 61.9167 47.6581 58.5729 47.2415 56.4844C44.3144 58.5729 41.3873 59.8281 38.8769 61.0833C38.0384 61.5 37.205 61.9167 36.7884 61.9167C35.5331 62.3333 34.6946 62.75 34.2779 62.75C30.0956 64.0052 28.0019 64.4219 23.8196 65.6771C22.1477 66.0938 20.8925 66.9323 19.6373 67.7656C19.2206 68.1823 18.804 68.1823 18.804 68.599C17.1269 70.2708 15.8769 71.526 15.455 71.9427C11.2727 76.1198 10.4394 81.5521 10.0175 84.4792C6.67377 105.786 5.00189 116.646 5.00189 120.406C5.00189 145.057 11.2727 166.786 15.455 178.901C16.2936 178.484 17.1269 178.062 17.9654 177.646C18.3821 178.062 18.3821 178.484 18.804 178.484C20.4759 180.156 21.7311 181.406 22.9863 182.661C27.1686 186.422 28.4238 188.094 30.0956 187.672C31.3509 187.672 32.6061 186.839 33.4394 186.005C49.3352 174.302 60.6269 156.755 64.8092 137.12C65.2259 134.615 65.6425 132.104 66.0644 129.599C66.8977 127.927 66.8977 125.422 66.8977 123.333ZM27.1686 138.375C26.33 141.297 25.4915 144.641 23.4029 149.234C22.1477 145.057 20.4759 137.958 20.8925 129.182C21.3092 121.661 23.4029 115.813 25.0748 112.052C25.0748 111.635 25.4915 111.635 25.4915 111.219C25.9134 112.052 26.33 113.724 26.33 115.396V115.812C27.5852 121.245 28.8404 129.182 27.1686 138.375Z" fill="#D89B98"/>
<path d="M40.9707 351.87C42.2259 354.375 45.5696 355.214 47.6582 357.302C49.3353 358.974 50.5905 361.479 51.8405 363.568C55.1894 368.161 61.8821 369.833 67.3196 367.745C69.4082 366.911 71.0801 365.656 71.9186 363.984C72.7571 362.313 73.1738 359.807 72.3353 358.135C71.5019 356.464 70.2467 355.63 68.9915 354.375C65.6426 349.781 63.9707 344.349 65.6426 339.333C66.0644 338.083 66.4811 336.828 66.4811 335.573C66.4811 334.323 66.0644 333.068 65.2259 332.234C64.3874 331.813 63.1374 331.812 62.2988 331.812C58.9551 331.812 55.6061 332.234 51.8405 332.234C52.679 332.234 49.7519 336.828 49.3353 337.245C47.6582 338.5 45.5696 338.5 44.3144 340.172C42.2259 343.094 38.8769 348.109 40.9707 351.87Z" fill="#EAEAEA"/>
<path d="M178.148 325.547C178.57 327.219 178.57 328.891 178.148 330.146C177.314 332.651 175.643 334.74 173.965 336.828C172.294 338.5 170.622 340.172 168.95 341.844C167.278 343.516 166.023 345.182 164.351 346.854C163.096 348.11 161.84 349.365 160.163 349.781H159.747C159.33 349.781 159.33 349.781 158.913 349.781C157.658 349.781 155.981 348.943 155.564 347.693C155.564 347.271 155.564 346.854 155.564 346.438C155.981 345.604 156.403 344.766 156.82 343.932C157.658 342.677 158.492 341.422 158.913 339.755C162.257 332.235 163.096 323.459 162.674 315.104C162.674 314.266 162.674 313.433 162.674 312.177C162.674 309.672 162.257 306.745 161.84 304.24C160.585 296.302 158.913 288.365 156.82 280.427C154.309 272.068 151.382 264.13 150.965 255.36C150.127 241.568 155.981 228.198 156.82 214.412C157.236 209.401 156.82 203.969 158.913 199.37C160.585 195.193 166.439 191.016 171.038 191.854C176.476 193.104 179.403 199.37 180.658 203.969C187.351 229.453 186.096 257.448 177.314 282.516C177.314 282.932 176.898 283.349 176.898 283.766C176.476 284.604 176.059 285.438 176.059 286.276C175.221 289.198 173.965 292.125 173.965 295.047C173.549 300.063 174.387 305.078 175.643 310.089C175.643 310.927 176.059 311.761 176.059 312.594C176.898 315.938 177.314 319.281 178.148 322.203V322.625V323.042C177.731 324.297 177.731 325.13 178.148 325.547Z" fill="#F4B6A2"/>
<path d="M182.33 339.755C181.08 340.172 180.241 340.588 179.403 341.005C178.57 338.917 178.148 336.411 178.148 334.323C176.059 335.156 174.804 337.661 173.549 339.755C172.715 341.844 171.877 344.349 170.205 346.021C167.278 349.364 162.257 350.198 157.658 351.031C157.236 351.031 155.981 351.453 155.564 351.031C154.309 349.781 155.148 346.854 155.148 346.854C155.148 346.854 155.148 347.271 155.564 348.109C155.564 348.109 155.981 349.364 156.82 349.781C157.236 349.781 158.075 349.781 159.33 349.364C160.585 348.943 161.84 348.109 162.674 347.271C166.439 343.932 169.366 339.333 172.715 335.573C174.387 333.484 176.059 331.812 176.898 329.307C177.314 328.052 177.314 327.219 177.314 325.963C177.314 325.13 176.898 324.297 176.898 323.875V323.458C176.898 323.042 176.476 322.203 176.059 321.786C175.643 320.953 174.804 320.114 174.387 319.281C173.965 318.026 173.549 316.354 173.549 315.104C170.205 313.432 166.023 314.265 162.257 315.521C162.257 314.687 162.257 313.849 162.257 313.015C165.184 312.177 168.533 311.76 171.46 311.76C172.294 311.76 173.132 311.76 173.965 312.594C174.387 313.015 174.804 313.015 174.804 313.849C175.221 314.265 175.221 314.687 175.643 315.104C176.898 318.026 178.148 320.953 179.825 323.875C181.08 325.963 181.913 328.474 181.913 330.979C182.33 333.484 180.658 336.828 182.33 339.755Z" fill="#EAEAEA"/>
<path d="M169.366 341.844C168.95 343.932 167.278 346.021 165.601 347.271C163.929 348.526 162.257 349.365 160.163 349.781H159.747H159.33H158.913C157.658 349.781 155.981 348.943 155.564 347.693C155.148 346.438 155.981 345.182 156.82 343.932C157.658 342.677 158.491 341.422 158.913 339.755C158.913 339.755 159.33 339.755 159.747 340.172C161.002 341.005 162.674 341.422 163.929 341.422C165.601 341.844 167.278 342.261 169.366 341.844Z" fill="#EAEAEA"/>
<path d="M66.8977 119.156C61.4602 113.724 56.8612 107.037 52.6789 101.188C46.4081 92.0002 40.5487 82.8075 35.5331 73.1981C35.1112 72.7814 35.5331 72.3595 35.9498 71.9429C37.6216 71.1095 39.2935 70.271 40.9706 69.8543C39.2935 69.021 37.205 68.5991 35.1112 68.5991C34.6946 68.5991 34.2779 68.1825 34.2779 67.7658C35.1112 65.6772 35.9498 63.5887 37.205 61.5002C38.0383 61.5002 38.8769 61.0835 39.2935 60.6616C38.8769 61.0835 38.4602 61.9168 38.0383 62.3335C37.6216 63.5887 36.7883 64.422 36.3664 65.6772C35.9498 67.3491 35.9498 66.9325 37.6216 67.3491C39.2935 67.7658 41.3873 68.1825 43.0591 69.021C43.4758 69.4377 43.4758 69.8543 43.0591 70.271C40.9706 70.6929 39.2935 71.5262 37.6216 72.7814C42.6425 81.5522 47.6581 90.745 53.9341 99.0991C57.6998 104.531 62.2987 109.964 66.8977 114.979C66.481 116.229 66.8977 117.901 66.8977 119.156Z" fill="#353535"/>
<path d="M26.33 115.396C26.33 108.708 26.33 102.443 25.4915 95.7606C24.2415 86.1512 21.731 76.9585 19.2206 67.3491C18.804 67.7658 18.3821 67.7658 18.3821 68.1825C20.8925 77.7918 23.4029 87.4012 24.2415 97.4272C24.6581 102.026 25.0748 107.037 25.0748 111.636L26.33 115.396Z" fill="#353535"/>
<path d="M55.606 208.984C55.606 213.578 55.606 218.594 55.606 223.188C55.1893 222.349 54.7727 221.932 54.3508 221.516C54.3508 221.932 53.9341 221.932 53.9341 222.349C53.9341 217.755 54.3508 213.161 54.3508 208.562C54.3508 197.281 53.9341 186.422 53.0956 175.141C53.0956 174.302 53.9341 174.302 53.9341 175.141C55.1893 186.005 55.606 197.281 55.606 208.984Z" fill="#353535"/>
<path d="M53.5175 254.104C53.5175 267.057 53.9342 279.588 52.679 292.542C51.4237 305.495 48.4967 318.026 43.8977 330.146C43.8977 330.562 44.3144 330.979 44.731 330.562C56.4446 307.583 55.606 279.172 54.7727 254.104C54.3508 253.687 53.5175 253.687 53.5175 254.104Z" fill="#353535"/>
<path d="M64.8092 131.688C63.554 138.792 62.7154 145.474 60.6269 152.578C58.5331 159.682 55.1894 165.948 51.4238 172.214C49.3352 175.557 46.8248 178.485 44.3144 181.823C42.2259 184.333 40.1321 187.672 37.6217 189.766C33.8561 193.104 29.6738 188.927 26.7467 186.422C23.8196 183.912 21.3092 180.99 18.3821 178.063C17.9654 177.646 17.5488 178.063 17.9654 178.485C20.0592 181.406 22.5644 184.333 25.4915 186.422C28.0019 188.511 30.929 191.432 34.2779 191.432C37.205 191.432 38.8769 189.344 40.5488 187.255C43.4759 183.912 45.9863 180.156 48.9134 176.396C57.6998 163.86 65.2259 147.568 65.6425 131.271C65.2259 131.271 64.8092 131.271 64.8092 131.688Z" fill="#353535"/>
<path d="M118.762 166.786C116.669 168.036 114.158 170.125 112.07 172.635C110.814 173.885 109.976 175.14 109.143 176.396C105.794 172.213 102.45 166.786 99.5227 160.515C96.5957 155.083 94.5019 150.073 92.83 145.057V144.64C92.4134 143.385 91.9915 142.135 91.5748 140.88C91.5748 142.135 91.5748 143.807 91.5748 145.057C91.1582 161.354 91.5748 177.646 94.0852 193.943C94.0852 194.359 94.0852 194.776 94.0852 195.193C94.0852 195.614 94.0852 195.614 94.0852 196.031C90.7363 198.953 85.304 197.281 82.3717 193.943C79.4446 190.599 78.1894 186.005 76.9394 181.823C76.1009 178.062 75.2623 174.724 74.429 170.963C72.3352 163.026 70.6634 155.505 68.5696 147.568C68.5696 147.146 68.5696 147.146 68.153 146.729C66.4811 140.88 65.2259 135.031 64.8092 128.765V128.349C64.8092 126.677 64.3873 125.422 64.3873 123.75C64.3873 122.078 64.3873 119.989 64.3873 118.318C64.3873 116.229 64.8092 114.14 65.2259 112.052V111.635C66.4811 105.786 68.153 99.9373 69.8248 94.0884C71.9186 85.729 72.3352 81.9686 73.5905 76.9582C74.8457 69.854 75.6842 64.005 76.1009 60.2446C77.7727 60.6613 79.4446 61.0832 81.955 61.4998C82.3717 61.4998 82.3717 61.4998 82.7936 61.9165C83.2102 61.9165 83.6269 61.9165 84.0488 62.3332C92.4134 64.4217 94.0852 65.2603 94.9186 66.0936C97.429 68.1821 99.1009 71.1092 99.9394 74.8696C99.9394 74.8696 99.9394 75.2863 100.356 75.703C104.122 90.7446 104.538 106.62 107.049 121.661C108.721 132.526 111.231 141.297 112.903 146.729C114.58 155.083 117.085 161.771 118.762 166.786Z" fill="#D89B98"/>
<path d="M93.6686 196.864C89.903 198.953 85.304 198.953 81.955 194.776C80.2832 192.687 79.028 189.765 78.1894 186.838C76.5175 182.245 75.2623 177.229 74.0071 172.635C74.0071 172.213 73.5905 171.797 73.5905 171.38C70.6634 161.354 66.8977 151.323 64.8092 140.88C62.7155 131.271 62.7155 121.661 64.8092 112.052C64.8092 111.635 65.2259 112.052 65.2259 112.052C65.2259 112.469 65.2259 113.307 65.2259 113.724C65.2259 113.724 65.2259 113.724 65.2259 114.14C64.3873 119.573 64.3873 125.005 64.8092 130.437V130.854C65.2259 134.198 65.6425 137.12 66.0644 140.047C66.4811 142.969 67.3196 145.896 68.153 148.818C68.153 149.234 68.153 149.234 68.5696 149.656C69.8248 153.833 71.08 158.427 72.7571 162.604C75.2623 170.541 77.3561 178.901 80.2832 186.838C81.1217 189.76 82.3717 193.104 84.8821 195.193C87.8092 197.703 91.1582 197.281 94.5019 195.614C93.6686 196.031 93.6686 196.448 93.6686 196.864Z" fill="#353535"/>
<path d="M87.8092 71.5262C86.1373 71.9429 84.4655 72.7814 82.7936 73.1981C83.6269 74.0314 84.4655 74.87 85.7207 75.7033C86.1373 76.12 86.1373 76.5418 85.7207 76.9585C81.5384 83.6408 78.1894 90.3283 74.429 97.4272C73.5905 99.0991 71.9186 103.276 68.9915 108.708C67.3196 112.052 65.6425 114.979 64.8092 116.646C64.8092 116.229 64.8092 115.813 64.8092 115.396C64.8092 114.557 64.8092 114.141 64.8092 113.307C65.6425 111.219 66.8977 109.13 67.7363 107.458C69.4082 104.115 70.6634 101.188 72.3352 97.8491C76.1009 90.745 79.8665 84.0575 83.6269 76.9585C82.3717 76.12 81.5384 75.2866 80.2832 74.0314C79.8665 73.6147 79.8665 72.7814 80.6998 72.7814C82.7936 72.3595 84.4655 71.5262 86.554 71.1095C84.8821 68.5991 83.2102 65.2606 81.5384 62.3335C81.955 62.3335 81.955 62.3335 82.3717 62.7502C82.7936 62.7502 83.2102 62.7502 83.6269 63.172C84.8821 66.0939 86.554 68.5991 88.2311 71.1095C88.6477 70.6929 88.2311 71.1095 87.8092 71.5262Z" fill="#353535"/>
<path d="M91.9914 115.812C91.1581 123.333 90.7362 130.854 91.5748 138.375C91.5748 140.463 91.9914 142.552 92.4133 144.224C91.9914 142.969 91.5748 141.713 91.1581 140.463C91.1581 141.713 91.1581 143.385 91.1581 144.64C89.4862 135.448 89.9029 125.422 91.1581 116.646C92.4133 108.292 93.6685 100.354 95.7571 92.4165C97.0123 86.5675 98.2675 80.7186 99.9393 74.8696C99.9393 74.8696 99.9393 75.2863 100.356 75.703C99.1008 80.7186 97.8508 85.729 97.0123 90.7446C94.5018 99.0988 92.83 107.458 91.9914 115.812Z" fill="#353535"/>
<path d="M75.2623 61.5C74.429 62.75 73.5905 64.4219 73.1738 65.6771C71.5019 69.0208 69.8248 72.3594 68.153 75.7031H67.7363C66.4811 74.8698 65.2259 74.0312 63.9707 72.7812C63.1373 74.0312 61.8821 75.2865 61.0436 76.5417H60.6269C58.1165 72.7813 55.6061 69.4375 53.0957 65.6771C51.0071 62.75 48.9134 59.4115 46.8248 56.4844C47.2415 56.4844 47.2415 56.4844 47.2415 56.4844C49.3352 59.4115 51.4238 62.3333 53.5175 65.2604C56.0227 68.599 58.5332 72.3594 61.0436 75.7031C61.8821 74.4479 62.7155 73.6146 63.9707 72.3594C63.9707 72.3594 63.9707 72.3594 64.3873 72.3594C65.6425 73.1979 66.8977 74.0312 68.153 74.8698C69.8248 71.526 71.5019 68.599 73.1738 65.2604C74.0071 63.5885 74.8457 61.9167 75.6842 60.2448C75.6842 60.2448 75.6842 60.2448 76.1009 60.2448C75.2623 60.6615 75.2623 61.0833 75.2623 61.5Z" fill="#353535"/>
<path d="M176.059 284.188C175.642 285.021 175.221 285.859 175.221 286.693C173.965 259.953 169.783 233.63 163.096 207.312C163.096 206.891 163.512 206.891 163.512 207.312C171.038 231.958 175.221 258.281 176.059 284.188Z" fill="#353535"/>
<path d="M291.075 285.859C284.799 297.135 278.106 300.479 273.507 301.734C267.236 302.984 264.309 299.646 256.778 301.734C256.361 301.734 256.361 301.734 255.945 302.151C255.523 302.151 255.106 302.567 254.689 302.567C249.669 304.656 245.903 309.255 240.465 309.672H240.049C239.632 309.672 238.794 309.672 238.377 309.672C233.356 309.255 228.757 305.911 223.736 305.911C221.226 305.911 218.299 306.745 215.794 307.583C215.372 307.583 215.372 307.583 214.955 308C211.189 309.255 207.846 310.505 204.08 309.255C198.226 307.583 194.044 300.896 188.189 301.734C184.84 302.151 182.752 305.078 180.658 304.239C178.57 303.406 178.148 300.062 177.731 297.557C177.314 290.453 178.57 285.021 178.57 285.021C181.08 275.828 180.658 260.37 180.241 243.661C179.825 234.052 177.731 220.682 169.783 203.552C166.439 211.073 157.658 233.63 155.148 257.864C153.892 268.307 153.476 273.739 154.309 281.26C155.148 287.526 155.148 294.213 156.403 300.896C157.236 305.078 158.075 309.672 155.564 312.594C153.892 314.687 150.965 315.521 148.455 316.354C145.528 317.192 142.601 317.609 139.674 318.442C139.252 318.442 139.252 318.442 138.835 318.442C131.726 319.698 124.616 320.536 117.507 320.536C123.361 302.984 133.82 286.692 137.163 268.307C140.09 253.271 138.002 237.812 135.908 222.771C133.82 207.312 131.309 191.854 131.726 175.974C132.142 163.859 134.236 151.745 138.002 140.463C138.419 138.791 139.252 136.286 141.346 134.198C143.434 132.104 147.2 129.599 161.84 128.349C168.95 127.927 172.715 127.51 174.804 127.927C186.512 130.015 194.46 141.297 198.643 148.401C218.721 181.823 245.07 258.698 249.252 268.307C250.507 271.651 252.596 275.411 255.945 276.666C258.033 277.5 260.544 276.666 263.054 276.666C269.325 277.083 270.997 281.26 277.273 284.187C280.2 285.021 284.799 286.276 291.075 285.859Z" fill="#EAEAEA"/>
<path d="M255.523 301.734C255.106 301.734 254.689 302.151 254.268 302.151C237.96 284.188 227.085 262.042 218.721 239.479C212.861 224.021 207.846 208.562 202.408 193.104C196.971 177.646 192.372 160.516 181.497 148.401C181.497 148.401 181.497 147.984 181.913 147.984C194.044 161.354 199.064 180.99 204.919 197.281C211.611 216.922 217.882 236.974 226.663 255.776C234.195 272.49 243.393 288.365 255.523 301.734Z" fill="#353535"/>
<path d="M240.049 309.255C239.632 309.255 238.793 309.255 238.377 309.255C226.247 296.302 218.721 279.172 212.861 262.88C203.663 237.812 197.809 210.651 182.33 188.51C182.33 188.094 182.752 188.094 182.752 188.094C208.679 225.276 209.101 275.411 240.049 309.255Z" fill="#353535"/>
<path d="M216.21 306.745C215.794 306.745 215.794 306.745 215.372 307.167C212.861 304.24 210.356 301.318 208.262 298.391C201.57 288.365 197.809 276.25 188.189 267.891C187.768 267.891 188.189 267.474 188.606 267.474C200.314 277.917 205.335 295.886 216.21 306.745Z" fill="#353535"/>
<path d="M145.111 262.458C146.366 275.828 145.945 288.365 143.434 301.318C142.184 307.167 140.929 313.016 139.674 318.443C139.252 318.443 139.252 318.443 138.835 318.443C140.09 313.016 141.346 307.583 142.601 301.734C145.528 287.526 145.945 273.323 144.273 258.698C142.601 244.495 140.929 230.708 141.762 216.083C142.601 202.714 144.689 189.76 148.455 177.229C148.455 176.812 148.872 177.229 148.872 177.229C144.689 191.432 142.601 206.474 142.184 221.099C141.762 235.302 143.856 248.672 145.111 262.458Z" fill="#353535"/>
<path d="M258.45 285.437C262.632 284.187 265.559 288.365 268.07 290.453C270.163 292.125 273.507 294.213 276.018 292.125V291.708C268.492 295.469 265.559 282.932 258.45 285.437Z" fill="#353535"/>
<path d="M171.46 74.4481C173.965 72.3595 176.059 70.271 178.148 68.5991C181.913 69.021 185.262 69.4376 189.023 70.271C191.95 69.4376 195.299 68.1824 198.643 68.5991C201.992 68.5991 205.335 70.6928 206.59 73.6147C207.429 75.7033 207.429 78.2085 207.429 80.3022C207.429 86.9845 209.101 93.6668 212.028 99.521C207.429 102.86 202.825 106.62 198.643 110.797C194.044 107.037 189.445 103.276 186.934 97.8491C182.752 108.292 180.658 119.573 180.242 130.854C167.695 132.943 155.148 135.031 142.601 137.12C143.434 128.349 141.346 119.573 136.747 112.052C136.325 113.307 136.325 114.557 135.908 116.229C132.981 113.724 128.382 114.979 124.616 114.141C121.689 113.307 119.596 111.219 117.924 108.708C116.252 106.203 115.413 103.276 114.58 100.354C112.903 94.922 111.653 89.0731 112.903 83.6408C114.158 78.2085 118.34 72.7814 124.2 72.7814C127.96 72.7814 129.215 73.6147 135.07 73.6147C139.674 73.6147 143.434 72.7814 145.945 71.9428C147.2 73.6147 148.038 75.7033 149.294 77.7918C152.221 83.6408 154.731 89.4897 156.403 94.5054C159.747 86.9845 164.768 80.7189 171.46 74.4481Z" fill="#EAEAEA"/>
<path d="M152.221 20.9741C150.127 23.0627 149.71 25.9845 150.549 28.495C150.965 30.1616 151.799 31.8335 152.221 33.5054C152.221 35.5939 151.799 37.2658 151.799 38.9377C151.799 38.9377 152.221 39.3543 152.221 38.9377C153.476 36.4325 153.054 32.672 152.221 30.1616C151.799 28.495 150.965 27.2397 150.965 25.5679C150.549 23.896 150.965 22.2241 152.221 20.9741Z" fill="#353535"/>
<path d="M153.476 23.8956C152.637 25.1508 152.637 26.8227 153.476 28.4946C154.309 30.1613 156.403 30.9998 156.82 32.6717C157.236 33.505 157.236 34.7602 157.236 35.5936C157.658 36.4321 157.658 37.2654 158.491 37.6821C159.33 38.9373 160.585 40.1925 162.257 40.6092C162.257 40.6092 162.674 40.6092 162.257 40.1925C161.002 39.354 159.747 38.5206 158.913 36.8488C158.491 36.0102 158.075 35.5936 158.075 34.7602C158.075 33.9217 158.075 33.0883 157.658 32.255C157.236 30.9998 155.981 30.1613 155.148 28.9113C153.476 27.6561 153.054 25.5675 153.476 23.8956C153.892 23.8956 153.476 23.479 153.476 23.8956Z" fill="#353535"/>
<path d="M21.731 161.771C20.8925 167.62 20.0591 173.469 18.8039 178.901C18.3821 178.484 18.3821 178.484 17.9654 178.062C19.2206 172.635 20.0591 167.203 21.3091 161.354C21.3091 160.932 21.731 161.354 21.731 161.771Z" fill="#353535"/>
<path d="M32.1842 145.474C35.1113 145.474 38.0384 145.474 40.9707 145.474C42.6425 145.474 43.8977 145.474 45.5696 145.057C46.4082 145.057 46.8248 145.057 47.6582 145.057C48.4967 145.057 49.3352 144.641 50.1686 145.057C50.1686 145.057 50.1686 145.057 49.7519 144.641C49.7519 145.896 49.7519 147.146 49.3352 148.401C49.3352 148.401 49.3352 148.401 49.7519 147.984C48.4967 148.401 47.2415 148.818 45.9863 149.656C45.153 150.073 44.7311 150.073 43.8977 150.49C43.4759 150.906 42.6425 151.328 41.804 151.328C40.9707 151.328 40.5488 150.906 39.7155 150.906C38.8769 150.906 38.4602 150.49 37.6217 150.49C36.3665 150.073 35.1113 149.656 33.4394 149.234L33.8561 149.656C33.4394 148.401 32.6061 146.729 32.1842 145.474C31.7675 145.057 30.929 145.057 31.3509 145.896C31.7675 146.729 32.1842 147.568 32.6061 148.818C33.0227 149.234 33.0227 150.49 33.4394 150.49C33.8561 150.906 34.6946 150.906 35.1113 150.906C35.5332 150.906 35.9498 151.328 36.3665 151.328C37.205 151.745 38.4602 151.745 39.2936 152.161C39.7154 152.161 40.1321 152.578 40.5488 152.578C40.9707 152.578 41.3873 152.995 41.804 152.995C42.2259 152.995 42.6425 152.578 43.0592 152.578C43.4759 152.578 43.8977 152.161 44.7311 152.161C46.4082 151.328 48.4967 150.906 50.1686 149.656C50.1686 149.656 50.1686 149.656 50.1686 149.234C50.1686 147.984 50.1686 146.312 50.1686 145.057C50.1686 145.057 50.1686 144.641 49.7519 144.641C48.9134 145.057 48.08 144.641 47.2415 145.057C46.4082 145.057 45.5696 145.057 45.153 145.057C43.4759 145.057 42.2259 145.057 40.5488 145.057C37.6217 145.057 34.6946 145.057 31.7675 145.474C31.7675 145.057 31.7675 145.474 32.1842 145.474Z" fill="#353535"/>
<path d="M73.5904 145.474C76.1008 145.474 78.6112 145.474 81.1217 145.474C82.3717 145.474 83.6269 145.474 84.8821 145.057C85.304 145.057 86.1373 145.057 86.5539 145.057C87.3925 145.057 88.231 144.641 88.6477 145.057C88.6477 145.057 88.6477 145.057 88.231 144.641C88.231 145.896 88.231 146.729 87.8092 147.984C87.8092 147.984 87.8092 147.984 88.231 147.568C86.9758 147.984 86.1373 148.401 84.8821 148.818C84.4654 149.234 83.6269 149.234 83.2102 149.656C82.7935 149.656 81.955 150.073 81.5383 150.073C81.1217 150.073 80.2831 149.656 79.8664 149.656C79.4446 149.656 78.6112 149.234 78.1894 149.234C76.9394 148.818 76.1008 148.818 74.8456 148.401L75.2623 148.818C74.8456 147.568 74.4289 146.312 74.0071 145.474C73.5904 145.057 72.7571 145.057 73.1737 145.896C73.5904 146.729 73.5904 147.568 74.0071 147.984C74.0071 148.401 74.4289 149.234 74.8456 149.656C75.6842 150.073 76.5175 150.073 77.356 150.49C78.1894 150.906 79.0279 150.906 79.8664 151.328C80.2831 151.328 80.6998 151.328 81.1217 151.745C81.5383 151.745 81.955 152.161 82.3717 152.161C82.7935 152.161 83.2102 151.745 83.2102 151.745C83.6269 151.745 84.0487 151.328 84.4654 151.328C86.1373 150.49 87.3925 150.073 89.0644 149.234C89.0644 149.234 89.0644 149.234 89.0644 148.818C89.0644 147.568 89.0644 146.729 89.0644 145.474C89.0644 145.474 89.0644 145.057 88.6477 145.057C87.8092 145.474 87.3925 145.057 86.5539 145.057C86.1373 145.057 85.304 145.057 84.8821 145.057C83.6269 145.057 82.3717 145.057 81.1217 145.057C78.6112 145.057 76.1008 145.057 73.5904 145.474C73.1737 145.474 73.1737 144.641 73.5904 145.474Z" fill="#353535"/>
<path d="M68.5696 125.838C68.5696 126.062 68.5279 126.276 68.4446 126.479C68.3612 126.682 68.2415 126.864 68.08 127.021C67.9237 127.177 67.7467 127.297 67.5383 127.385C67.3352 127.469 67.1217 127.51 66.8977 127.51C66.679 127.51 66.4654 127.469 66.2571 127.385C66.054 127.297 65.8717 127.177 65.7154 127.021C65.5592 126.864 65.4394 126.682 65.356 126.479C65.2675 126.276 65.2258 126.062 65.2258 125.838C65.2258 125.62 65.2675 125.406 65.356 125.198C65.4394 124.995 65.5592 124.812 65.7154 124.656C65.8717 124.5 66.054 124.38 66.2571 124.297C66.4654 124.213 66.679 124.167 66.8977 124.167C67.1217 124.167 67.3352 124.213 67.5383 124.297C67.7467 124.38 67.9237 124.5 68.08 124.656C68.2415 124.812 68.3612 124.995 68.4446 125.198C68.5279 125.406 68.5696 125.62 68.5696 125.838Z" fill="#353535"/>
<path d="M2.07477 115.812C1.65289 117.901 1.65289 119.989 1.65289 121.661C1.65289 123.75 2.07477 125.838 2.07477 127.927C2.49143 132.104 2.9081 136.286 3.32477 140.463C3.32477 140.88 3.74664 140.88 3.74664 140.463C3.32477 136.286 2.9081 132.526 2.49143 128.349C2.49143 126.255 2.07477 124.166 2.07477 122.495C2.07477 120.406 1.65289 118.317 2.07477 116.229C2.49143 115.396 2.07477 115.396 2.07477 115.812Z" fill="#353535"/>
<path d="M43.0591 9.69276C38.8768 17.6303 39.7154 27.6563 43.0591 36.0105C43.0591 36.4323 43.8977 36.4323 43.4758 36.0105C40.9706 27.6563 39.2935 18.4636 43.4758 10.5261C43.8977 9.69276 43.0591 9.27609 43.0591 9.69276Z" fill="#353535"/>
<path d="M94.0853 62.3335C95.3405 62.7502 96.1738 63.5887 97.0123 64.422C97.8509 65.2606 98.6842 66.5106 99.5228 67.7658C101.195 69.8543 102.45 72.3595 103.288 74.87C103.288 75.2866 103.705 74.87 103.705 74.4481C102.867 71.5262 101.611 69.021 99.9394 66.5106C99.1009 65.2606 98.2675 64.422 97.429 63.172C96.5957 62.3335 95.3405 61.5002 94.0853 61.0835C93.6686 61.5002 93.2467 62.3335 94.0853 62.3335Z" fill="#353535"/>
<path d="M96.1737 160.932C97.4289 163.443 98.6841 166.365 99.9393 168.875C101.195 171.38 102.866 173.885 104.96 175.974C104.96 175.974 105.377 175.974 105.377 175.557C103.705 173.052 102.033 170.964 100.778 168.453C99.5227 165.948 97.8508 163.443 97.0122 160.937C97.0122 160.099 96.1737 160.516 96.1737 160.932Z" fill="#353535"/>
<path d="M86.9758 252.016C85.3039 254.104 84.8821 256.61 84.4654 259.12C84.0487 262.042 83.6269 264.969 83.6269 267.891C83.2102 273.74 82.7935 280.005 83.2102 286.276C83.2102 286.693 83.6269 286.693 84.0487 286.276C84.4654 280.427 84.4654 274.995 84.8821 269.146C85.3039 266.219 85.3039 263.297 85.7206 260.787C86.1373 257.865 86.1373 254.938 87.8091 252.433C87.8091 252.016 86.9758 251.599 86.9758 252.016Z" fill="#353535"/>
<path d="M34.6946 291.708C36.7883 297.557 40.1321 302.568 44.731 306.745C44.731 306.745 45.1529 306.745 45.1529 306.328C40.9706 301.735 37.6217 296.719 35.5331 291.287C35.1112 291.287 34.6946 291.287 34.6946 291.708Z" fill="#353535"/>
<path d="M35.5331 344.766C34.6946 348.109 35.9498 351.031 38.0383 353.542C40.1321 356.047 42.2258 358.974 44.731 361.062C45.1529 361.479 45.5696 360.641 45.1529 360.641C43.0592 358.135 40.9706 356.047 38.8769 353.542C37.205 351.031 35.1112 348.109 35.9498 344.766C35.9498 344.349 35.5331 344.349 35.5331 344.766Z" fill="#353535"/>
<path d="M107.471 112.885C107.887 119.573 108.721 125.838 110.398 132.104C110.398 132.526 110.814 132.104 110.814 132.104C110.398 128.765 109.976 125.838 109.142 122.495C108.721 119.156 108.304 115.812 107.887 112.885C108.304 112.469 107.471 112.469 107.471 112.885Z" fill="#353535"/>
<path d="M218.721 55.2291C215.794 60.6614 212.445 66.9322 214.117 73.1978C214.117 73.6145 214.538 73.6145 214.538 73.1978C213.7 66.9322 216.21 61.0833 219.137 55.651C219.554 55.2291 219.137 54.8124 218.721 55.2291Z" fill="#353535"/>
<path d="M184.007 111.219C182.752 116.229 182.33 121.661 182.752 126.677C182.752 127.094 183.169 127.094 183.169 126.677C183.585 121.661 183.585 116.646 184.424 111.219C184.84 110.797 184.424 110.797 184.007 111.219Z" fill="#353535"/>
<path d="M213.7 164.276C220.809 182.661 227.502 201.464 235.45 219.427C235.45 219.844 235.866 219.427 235.866 219.01C229.174 200.625 221.648 182.245 214.538 163.859C214.116 163.859 213.7 163.859 213.7 164.276Z" fill="#353535"/>
<path d="M131.726 236.141C136.325 243.24 134.653 252.432 133.398 260.37C131.726 268.729 129.215 277.083 126.705 285.438C126.705 285.438 127.127 285.859 127.127 285.438C130.887 277.083 133.398 267.474 134.653 258.281C135.908 250.76 136.747 242.406 132.142 235.719C131.726 235.719 131.309 236.141 131.726 236.141Z" fill="#353535"/>
<path d="M160.163 355.214C164.768 354.375 168.95 352.703 173.132 350.198C173.549 350.198 173.132 349.781 172.715 349.781C168.533 351.87 164.351 353.542 159.747 354.375C159.33 354.792 159.747 355.214 160.163 355.214Z" fill="#353535"/>
<path d="M281.038 309.672C288.564 304.656 293.163 297.135 297.346 289.614C297.346 289.198 296.929 289.198 296.929 289.198C292.33 296.302 288.148 304.239 280.616 309.255C280.2 309.255 280.616 309.672 281.038 309.672Z" fill="#353535"/>
<path d="M115.835 84.896C115.835 92.4168 118.34 99.9377 122.523 106.203H122.945C119.179 99.521 116.669 92.4168 116.252 84.896C116.669 84.896 115.835 84.896 115.835 84.896Z" fill="#353535"/>
<path d="M203.247 76.1196C201.991 78.63 202.408 81.9686 202.825 84.8957C203.247 87.8175 203.663 91.1613 204.497 94.0884C204.497 94.505 205.335 94.505 204.919 94.0884C204.497 91.1613 203.663 88.2394 203.247 85.3123C202.825 82.3905 202.408 79.4634 203.247 76.9582C204.08 76.1196 203.663 76.1196 203.247 76.1196Z" fill="#353535"/>
<path d="M163.929 92.0002C168.111 86.5679 172.715 81.9689 177.731 77.3752C178.148 76.9585 177.731 76.9585 177.314 76.9585C172.294 81.1356 167.695 86.1512 163.512 91.1616C162.674 92.0002 163.512 92.4168 163.929 92.0002Z" fill="#353535"/>
<path d="M144.689 77.3751C146.366 80.7189 148.038 83.6408 149.71 86.9845C151.382 90.3283 152.637 93.6668 154.309 97.0105H154.731C153.892 93.6668 151.799 90.3283 150.549 86.9845C148.872 83.6408 147.2 80.3022 145.111 77.3751C145.111 76.9585 144.689 77.3751 144.689 77.3751Z" fill="#353535"/>
<path d="M168.111 8.4374C175.643 13.0364 179.825 20.9739 181.497 29.328C181.497 29.7447 181.913 29.328 181.913 29.328C181.497 20.552 176.059 12.1978 168.533 8.02073C168.111 7.60407 167.695 8.02073 168.111 8.4374Z" fill="#353535"/>
</g>
<defs>
<clipPath id="clip0_347_2152">
<rect width="300" height="370" fill="white" transform="translate(0 0.5)"/>
</clipPath>
</defs>
</svg>
