<svg width="549" height="240" viewBox="0 0 549 240" fill="none" xmlns="http://www.w3.org/2000/svg">
<g filter="url(#filter0_d_65_412)">
<path d="M108.358 39.4545L112.676 51.6989H112.847L117.165 39.4545H119.011L113.67 54H111.852L106.511 39.4545H108.358ZM120.624 54H118.777L124.118 39.4545H125.936L131.277 54H129.43L125.084 41.7557H124.97L120.624 54ZM121.305 48.3182H128.749V49.8807H121.305V48.3182ZM124.26 37.9773L125.993 34.6818H127.953L125.737 37.9773H124.26ZM130.808 39.4545H132.825L136.859 46.2443H137.03L141.064 39.4545H143.081L137.825 48.0057V54H136.064V48.0057L130.808 39.4545ZM162.689 44H160.927C160.823 43.4934 160.641 43.0483 160.38 42.6648C160.125 42.2812 159.812 41.9593 159.443 41.6989C159.078 41.4337 158.673 41.2348 158.228 41.1023C157.783 40.9697 157.319 40.9034 156.836 40.9034C155.956 40.9034 155.158 41.1259 154.443 41.571C153.733 42.0161 153.167 42.6719 152.745 43.5384C152.329 44.4048 152.12 45.4678 152.12 46.7273C152.12 47.9867 152.329 49.0497 152.745 49.9162C153.167 50.7827 153.733 51.4384 154.443 51.8835C155.158 52.3286 155.956 52.5511 156.836 52.5511C157.319 52.5511 157.783 52.4848 158.228 52.3523C158.673 52.2197 159.078 52.0232 159.443 51.7628C159.812 51.4976 160.125 51.1733 160.38 50.7898C160.641 50.4015 160.823 49.9564 160.927 49.4545H162.689C162.556 50.1979 162.315 50.8632 161.964 51.4503C161.614 52.0374 161.178 52.5369 160.657 52.9489C160.136 53.3561 159.552 53.6662 158.903 53.8793C158.259 54.0923 157.57 54.1989 156.836 54.1989C155.596 54.1989 154.493 53.8958 153.527 53.2898C152.561 52.6837 151.801 51.822 151.247 50.7045C150.693 49.5871 150.416 48.2614 150.416 46.7273C150.416 45.1932 150.693 43.8674 151.247 42.75C151.801 41.6326 152.561 40.7708 153.527 40.1648C154.493 39.5587 155.596 39.2557 156.836 39.2557C157.57 39.2557 158.259 39.3622 158.903 39.5753C159.552 39.7884 160.136 40.1009 160.657 40.5128C161.178 40.92 161.614 41.4171 161.964 42.0043C162.315 42.5866 162.556 43.2519 162.689 44ZM178.461 38.5739H180.109C180.109 39.5019 179.969 40.2831 179.69 40.9176C179.415 41.5473 178.97 42.0256 178.354 42.3523C177.744 42.6742 176.936 42.8352 175.933 42.8352V41.4432C176.595 41.4432 177.109 41.3343 177.474 41.1165C177.843 40.8987 178.099 40.5767 178.241 40.1506C178.388 39.7244 178.461 39.1989 178.461 38.5739ZM175.08 39.4545H176.842V49.0852C176.842 50.0795 176.607 50.9673 176.138 51.7486C175.674 52.5251 175.019 53.1383 174.171 53.5881C173.324 54.0331 172.329 54.2557 171.188 54.2557C170.047 54.2557 169.053 54.0331 168.205 53.5881C167.358 53.1383 166.7 52.5251 166.231 51.7486C165.767 50.9673 165.535 50.0795 165.535 49.0852V39.4545H167.296V48.9432C167.296 49.6534 167.452 50.2855 167.765 50.8395C168.077 51.3887 168.522 51.822 169.1 52.1392C169.683 52.4517 170.379 52.608 171.188 52.608C171.998 52.608 172.694 52.4517 173.276 52.1392C173.859 51.822 174.304 51.3887 174.612 50.8395C174.924 50.2855 175.08 49.6534 175.08 48.9432V39.4545ZM193.995 38.4034H195.672C195.672 39.6818 195.352 40.669 194.713 41.3651C194.078 42.0611 193.129 42.4091 191.865 42.4091V41.017C192.603 41.017 193.143 40.7874 193.484 40.3281C193.825 39.8688 193.995 39.2273 193.995 38.4034ZM194.507 46.7273C194.507 48.2614 194.23 49.5871 193.676 50.7045C193.122 51.822 192.362 52.6837 191.396 53.2898C190.43 53.8958 189.327 54.1989 188.086 54.1989C186.846 54.1989 185.743 53.8958 184.777 53.2898C183.811 52.6837 183.051 51.822 182.497 50.7045C181.943 49.5871 181.666 48.2614 181.666 46.7273C181.666 45.1932 181.943 43.8674 182.497 42.75C183.051 41.6326 183.811 40.7708 184.777 40.1648C185.743 39.5587 186.846 39.2557 188.086 39.2557C189.327 39.2557 190.43 39.5587 191.396 40.1648C192.362 40.7708 193.122 41.6326 193.676 42.75C194.23 43.8674 194.507 45.1932 194.507 46.7273ZM192.802 46.7273C192.802 45.4678 192.592 44.4048 192.17 43.5384C191.753 42.6719 191.188 42.0161 190.473 41.571C189.762 41.1259 188.967 40.9034 188.086 40.9034C187.206 40.9034 186.408 41.1259 185.693 41.571C184.983 42.0161 184.417 42.6719 183.995 43.5384C183.579 44.4048 183.37 45.4678 183.37 46.7273C183.37 47.9867 183.579 49.0497 183.995 49.9162C184.417 50.7827 184.983 51.4384 185.693 51.8835C186.408 52.3286 187.206 52.5511 188.086 52.5511C188.967 52.5511 189.762 52.3286 190.473 51.8835C191.188 51.4384 191.753 50.7827 192.17 49.9162C192.592 49.0497 192.802 47.9867 192.802 46.7273ZM187.319 37.9773L189.052 34.6818H191.012L188.797 37.9773H187.319ZM199.484 39.4545V54H197.722V39.4545H199.484ZM209.237 39.4545L213.555 51.6989H213.725L218.044 39.4545H219.89L214.549 54H212.731L207.39 39.4545H209.237ZM223.917 39.4545V54H222.156V39.4545H223.917ZM227.449 54V39.4545H236.227V41.017H229.21V45.9318H235.773V47.4943H229.21V52.4375H236.341V54H227.449ZM233.301 38.1477L231.824 36.1591L230.347 38.1477H228.756V38.0341L231.057 35.0795H232.591L234.892 38.0341V38.1477H233.301ZM231.682 57.608C231.355 57.608 231.073 57.4967 230.837 57.2741C230.605 57.0516 230.489 56.7841 230.489 56.4716C230.489 56.1591 230.605 55.8916 230.837 55.669C231.073 55.4465 231.355 55.3352 231.682 55.3352C232.009 55.3352 232.288 55.4465 232.52 55.669C232.757 55.8916 232.875 56.1591 232.875 56.4716C232.875 56.7841 232.757 57.0516 232.52 57.2741C232.288 57.4967 232.009 57.608 231.682 57.608ZM238.607 41.017V39.4545H249.516V41.017H244.942V54H243.18V41.017H238.607Z" fill="black"/>
<path d="M226.653 141.227C225.744 141.227 224.942 140.998 224.246 140.538C223.55 140.074 223.005 139.421 222.612 138.578C222.219 137.731 222.023 136.729 222.023 135.574C222.023 134.428 222.219 133.434 222.612 132.591C223.005 131.748 223.552 131.097 224.253 130.638C224.954 130.179 225.763 129.949 226.682 129.949C227.392 129.949 227.953 130.067 228.365 130.304C228.782 130.536 229.099 130.801 229.317 131.099C229.539 131.393 229.712 131.634 229.835 131.824H229.977V126.455H231.653V141H230.034V139.324H229.835C229.712 139.523 229.537 139.774 229.31 140.077C229.082 140.375 228.758 140.643 228.337 140.879C227.915 141.111 227.354 141.227 226.653 141.227ZM226.881 139.722C227.553 139.722 228.121 139.546 228.585 139.196C229.049 138.841 229.402 138.351 229.643 137.726C229.885 137.096 230.006 136.369 230.006 135.545C230.006 134.731 229.887 134.018 229.651 133.408C229.414 132.792 229.063 132.314 228.599 131.973C228.135 131.627 227.563 131.455 226.881 131.455C226.17 131.455 225.579 131.637 225.105 132.001C224.636 132.361 224.284 132.851 224.047 133.472C223.815 134.087 223.699 134.778 223.699 135.545C223.699 136.322 223.817 137.027 224.054 137.662C224.295 138.292 224.651 138.794 225.119 139.168C225.593 139.537 226.18 139.722 226.881 139.722ZM239.388 141.227C238.403 141.227 237.539 140.993 236.795 140.524C236.057 140.055 235.479 139.4 235.062 138.557C234.651 137.714 234.445 136.729 234.445 135.602C234.445 134.466 234.651 133.474 235.062 132.626C235.479 131.779 236.057 131.121 236.795 130.652C237.539 130.183 238.403 129.949 239.388 129.949C240.373 129.949 241.234 130.183 241.973 130.652C242.716 131.121 243.294 131.779 243.706 132.626C244.123 133.474 244.331 134.466 244.331 135.602C244.331 136.729 244.123 137.714 243.706 138.557C243.294 139.4 242.716 140.055 241.973 140.524C241.234 140.993 240.373 141.227 239.388 141.227ZM239.388 139.722C240.136 139.722 240.751 139.53 241.234 139.146C241.717 138.763 242.075 138.259 242.307 137.634C242.539 137.009 242.655 136.331 242.655 135.602C242.655 134.873 242.539 134.194 242.307 133.564C242.075 132.934 241.717 132.425 241.234 132.037C240.751 131.649 240.136 131.455 239.388 131.455C238.64 131.455 238.024 131.649 237.541 132.037C237.058 132.425 236.701 132.934 236.469 133.564C236.237 134.194 236.121 134.873 236.121 135.602C236.121 136.331 236.237 137.009 236.469 137.634C236.701 138.259 237.058 138.763 237.541 139.146C238.024 139.53 238.64 139.722 239.388 139.722ZM254.191 134.438V141H252.515V130.091H254.134V131.795H254.276C254.532 131.241 254.92 130.796 255.441 130.46C255.962 130.119 256.634 129.949 257.458 129.949C258.196 129.949 258.843 130.1 259.397 130.403C259.951 130.702 260.382 131.156 260.689 131.767C260.997 132.373 261.151 133.14 261.151 134.068V141H259.475V134.182C259.475 133.325 259.252 132.657 258.807 132.179C258.362 131.696 257.751 131.455 256.975 131.455C256.44 131.455 255.962 131.571 255.54 131.803C255.123 132.035 254.794 132.373 254.553 132.818C254.311 133.263 254.191 133.803 254.191 134.438ZM268.617 145.318C267.808 145.318 267.112 145.214 266.529 145.006C265.947 144.802 265.461 144.532 265.073 144.196C264.69 143.865 264.384 143.509 264.157 143.131L265.492 142.193C265.644 142.392 265.835 142.619 266.067 142.875C266.299 143.135 266.617 143.36 267.019 143.55C267.426 143.744 267.959 143.841 268.617 143.841C269.498 143.841 270.225 143.628 270.798 143.202C271.371 142.776 271.657 142.108 271.657 141.199V138.983H271.515C271.392 139.182 271.217 139.428 270.989 139.722C270.767 140.01 270.445 140.268 270.023 140.496C269.607 140.718 269.043 140.83 268.333 140.83C267.452 140.83 266.662 140.621 265.961 140.205C265.265 139.788 264.713 139.182 264.306 138.386C263.904 137.591 263.702 136.625 263.702 135.489C263.702 134.371 263.899 133.398 264.292 132.57C264.685 131.736 265.232 131.092 265.933 130.638C266.633 130.179 267.443 129.949 268.362 129.949C269.072 129.949 269.635 130.067 270.052 130.304C270.473 130.536 270.795 130.801 271.018 131.099C271.245 131.393 271.42 131.634 271.543 131.824H271.714V130.091H273.333V141.312C273.333 142.25 273.12 143.012 272.694 143.599C272.272 144.191 271.704 144.625 270.989 144.899C270.279 145.179 269.488 145.318 268.617 145.318ZM268.56 139.324C269.233 139.324 269.801 139.17 270.265 138.862C270.729 138.554 271.082 138.112 271.323 137.534C271.565 136.956 271.685 136.265 271.685 135.46C271.685 134.674 271.567 133.981 271.33 133.379C271.094 132.778 270.743 132.307 270.279 131.966C269.815 131.625 269.242 131.455 268.56 131.455C267.85 131.455 267.258 131.634 266.785 131.994C266.316 132.354 265.963 132.837 265.727 133.443C265.495 134.049 265.379 134.722 265.379 135.46C265.379 136.218 265.497 136.888 265.734 137.47C265.975 138.048 266.33 138.502 266.799 138.834C267.272 139.161 267.86 139.324 268.56 139.324ZM286.231 129.608H287.708C287.708 130.328 287.613 130.931 287.424 131.419C287.235 131.902 286.903 132.267 286.43 132.513C285.956 132.754 285.293 132.875 284.441 132.875V131.71C285.028 131.71 285.445 131.639 285.691 131.497C285.942 131.35 286.094 131.123 286.146 130.815C286.202 130.503 286.231 130.1 286.231 129.608ZM283.276 136.54V130.091H284.952V141H283.276V139.153H283.163C282.907 139.707 282.509 140.179 281.969 140.567C281.43 140.95 280.748 141.142 279.924 141.142C279.242 141.142 278.636 140.993 278.106 140.695C277.576 140.392 277.159 139.937 276.856 139.331C276.553 138.72 276.401 137.951 276.401 137.023V130.091H278.077V136.909C278.077 137.705 278.3 138.339 278.745 138.812C279.195 139.286 279.768 139.523 280.464 139.523C280.88 139.523 281.304 139.416 281.735 139.203C282.171 138.99 282.535 138.663 282.829 138.223C283.127 137.783 283.276 137.222 283.276 136.54ZM297.706 129.267H299.269C299.269 130.347 299.032 131.204 298.559 131.838C298.09 132.473 297.266 132.79 296.087 132.79V131.597C296.56 131.597 296.911 131.5 297.138 131.305C297.37 131.111 297.522 130.839 297.593 130.489C297.668 130.138 297.706 129.731 297.706 129.267ZM293.275 141.227C292.29 141.227 291.426 140.993 290.682 140.524C289.944 140.055 289.366 139.4 288.949 138.557C288.537 137.714 288.331 136.729 288.331 135.602C288.331 134.466 288.537 133.474 288.949 132.626C289.366 131.779 289.944 131.121 290.682 130.652C291.426 130.183 292.29 129.949 293.275 129.949C294.259 129.949 295.121 130.183 295.86 130.652C296.603 131.121 297.181 131.779 297.593 132.626C298.009 133.474 298.218 134.466 298.218 135.602C298.218 136.729 298.009 137.714 297.593 138.557C297.181 139.4 296.603 140.055 295.86 140.524C295.121 140.993 294.259 141.227 293.275 141.227ZM293.275 139.722C294.023 139.722 294.638 139.53 295.121 139.146C295.604 138.763 295.962 138.259 296.194 137.634C296.426 137.009 296.542 136.331 296.542 135.602C296.542 134.873 296.426 134.194 296.194 133.564C295.962 132.934 295.604 132.425 295.121 132.037C294.638 131.649 294.023 131.455 293.275 131.455C292.526 131.455 291.911 131.649 291.428 132.037C290.945 132.425 290.587 132.934 290.355 133.564C290.123 134.194 290.007 134.873 290.007 135.602C290.007 136.331 290.123 137.009 290.355 137.634C290.587 138.259 290.945 138.763 291.428 139.146C291.911 139.53 292.526 139.722 293.275 139.722ZM292.564 128.614L290.348 125.318H292.309L294.042 128.614H292.564ZM300.796 141V130.091H302.472V141H300.796ZM301.648 128.273C301.321 128.273 301.04 128.161 300.803 127.939C300.571 127.716 300.455 127.449 300.455 127.136C300.455 126.824 300.571 126.556 300.803 126.334C301.04 126.111 301.321 126 301.648 126C301.975 126 302.254 126.111 302.486 126.334C302.723 126.556 302.841 126.824 302.841 127.136C302.841 127.449 302.723 127.716 302.486 127.939C302.254 128.161 301.975 128.273 301.648 128.273ZM311.991 126.455L316.309 138.699H316.479L320.798 126.455H322.644L317.303 141H315.485L310.144 126.455H311.991ZM324.683 141V130.091H326.359V141H324.683ZM325.535 128.273C325.208 128.273 324.926 128.161 324.69 127.939C324.458 127.716 324.342 127.449 324.342 127.136C324.342 126.824 324.458 126.556 324.69 126.334C324.926 126.111 325.208 126 325.535 126C325.862 126 326.141 126.111 326.373 126.334C326.61 126.556 326.728 126.824 326.728 127.136C326.728 127.449 326.61 127.716 326.373 127.939C326.141 128.161 325.862 128.273 325.535 128.273ZM334.002 141.227C332.951 141.227 332.045 140.995 331.282 140.531C330.525 140.062 329.94 139.409 329.528 138.571C329.121 137.728 328.917 136.748 328.917 135.631C328.917 134.513 329.121 133.528 329.528 132.676C329.94 131.819 330.513 131.152 331.247 130.673C331.985 130.19 332.847 129.949 333.832 129.949C334.4 129.949 334.961 130.044 335.515 130.233C336.069 130.422 336.574 130.73 337.028 131.156C337.483 131.578 337.845 132.136 338.115 132.832C338.385 133.528 338.52 134.385 338.52 135.403V136.114H330.11V134.665H336.815C336.815 134.049 336.692 133.5 336.446 133.017C336.204 132.534 335.859 132.153 335.409 131.874C334.964 131.594 334.438 131.455 333.832 131.455C333.164 131.455 332.587 131.62 332.099 131.952C331.616 132.278 331.244 132.705 330.984 133.23C330.724 133.756 330.593 134.319 330.593 134.92V135.886C330.593 136.71 330.735 137.409 331.02 137.982C331.308 138.55 331.708 138.983 332.22 139.281C332.731 139.575 333.325 139.722 334.002 139.722C334.443 139.722 334.841 139.66 335.196 139.537C335.556 139.409 335.866 139.22 336.126 138.969C336.386 138.713 336.588 138.396 336.73 138.017L338.349 138.472C338.179 139.021 337.892 139.504 337.49 139.92C337.087 140.332 336.59 140.654 335.998 140.886C335.406 141.114 334.741 141.227 334.002 141.227ZM335.224 128.784L333.747 126.795L332.27 128.784H330.679V128.67L332.98 125.716H334.514L336.815 128.67V128.784H335.224ZM333.747 144.608C333.42 144.608 333.138 144.497 332.902 144.274C332.67 144.052 332.554 143.784 332.554 143.472C332.554 143.159 332.67 142.892 332.902 142.669C333.138 142.446 333.42 142.335 333.747 142.335C334.074 142.335 334.353 142.446 334.585 142.669C334.822 142.892 334.94 143.159 334.94 143.472C334.94 143.784 334.822 144.052 334.585 144.274C334.353 144.497 334.074 144.608 333.747 144.608ZM345.814 130.091V131.511H340.16V130.091H345.814ZM341.808 127.477H343.484V137.875C343.484 138.348 343.553 138.704 343.69 138.94C343.832 139.172 344.012 139.329 344.23 139.409C344.452 139.485 344.687 139.523 344.933 139.523C345.118 139.523 345.269 139.513 345.387 139.494C345.506 139.471 345.6 139.452 345.672 139.438L346.012 140.943C345.899 140.986 345.74 141.028 345.537 141.071C345.333 141.118 345.075 141.142 344.762 141.142C344.289 141.142 343.825 141.04 343.37 140.837C342.921 140.633 342.547 140.323 342.248 139.906C341.955 139.49 341.808 138.964 341.808 138.33V127.477Z" fill="black"/>
</g>
<path d="M53.8 124.216C53.48 124.216 53.192 124.216 52.936 124.216C52.68 124.216 52.424 124.184 52.168 124.12C49.096 123.544 47.56 120.792 47.56 115.864C47.56 111.896 48.552 106.552 50.536 99.832C52.52 93.112 55.528 85.016 59.56 75.544C60.712 72.856 61.864 69.848 63.016 66.52C64.168 63.128 65.128 59.736 65.896 56.344C66.728 52.952 67.144 49.88 67.144 47.128C67.144 45.144 66.888 43.416 66.376 41.944C65.864 40.408 65 39.288 63.784 38.584C62.376 37.688 60.808 37.048 59.08 36.664C57.416 36.216 55.656 35.992 53.8 35.992C50.472 35.992 46.984 36.6 43.336 37.816C39.688 38.968 36.072 40.6 32.488 42.712C28.904 44.824 25.512 47.288 22.312 50.104C19.112 52.92 16.264 55.992 13.768 59.32C11.336 62.584 9.48 65.976 8.2 69.496C7.368 71.864 6.728 74.104 6.28 76.216C5.896 78.328 5.704 80.312 5.704 82.168C5.704 86.008 6.472 89.24 8.008 91.864C9.544 94.424 11.528 96.344 13.96 97.624C16.456 98.904 19.08 99.544 21.832 99.544C24.52 99.544 27.176 98.904 29.8 97.624C32.488 96.28 34.888 94.52 37 92.344C39.176 90.168 40.904 87.768 42.184 85.144C43.464 82.52 44.104 79.864 44.104 77.176C44.104 75 43.656 73.112 42.76 71.512C41.864 69.848 40.36 69.016 38.248 69.016C37.8 69.016 37.32 69.048 36.808 69.112C36.36 69.176 35.88 69.304 35.368 69.496C34.728 69.688 34.216 69.784 33.832 69.784C33.512 69.784 33.352 69.688 33.352 69.496C33.352 69.368 33.48 69.176 33.736 68.92C33.992 68.6 34.344 68.344 34.792 68.152C36.648 67.32 38.376 66.904 39.976 66.904C42.6 66.904 44.648 67.896 46.12 69.88C47.592 71.864 48.328 74.264 48.328 77.08C48.328 80.152 47.432 83.16 45.64 86.104C43.912 89.048 41.64 91.736 38.824 94.168C36.008 96.536 32.968 98.456 29.704 99.928C26.44 101.336 23.304 102.04 20.296 102.04C16.904 102.04 13.672 101.112 10.6 99.256C7.528 97.4 5.032 94.808 3.112 91.48C1.192 88.088 0.232 84.152 0.232 79.672C0.232 77.624 0.488 75.48 1 73.24C1.448 71 2.184 68.696 3.208 66.328C5.32 61.464 8.264 57.016 12.04 52.984C15.816 48.952 20.04 45.496 24.712 42.616C29.384 39.672 34.152 37.432 39.016 35.896C43.88 34.296 48.52 33.496 52.936 33.496C56.84 33.496 60.328 34.168 63.4 35.512C66.792 36.984 69.192 39.16 70.6 42.04C72.008 44.92 72.712 48.152 72.712 51.736C72.712 55.64 72.04 59.8 70.696 64.216C69.416 68.568 67.784 72.728 65.8 76.696C63.752 80.856 61.896 85.208 60.232 89.752C58.568 94.232 57.16 98.52 56.008 102.616C54.856 106.648 54.024 110.136 53.512 113.08C53.384 113.784 53.288 114.424 53.224 115C53.16 115.64 53.128 116.216 53.128 116.728C53.128 119.736 54.12 121.24 56.104 121.24C57.448 121.24 59.048 120.664 60.904 119.512C62.76 118.424 64.68 117.048 66.664 115.384C68.712 113.72 70.664 111.992 72.52 110.2C74.376 108.344 75.976 106.712 77.32 105.304C78.664 103.832 79.592 102.808 80.104 102.232C85.48 95.96 89.704 89.688 92.776 83.416C95.848 77.08 97.384 71.384 97.384 66.328C97.384 65.176 97.288 64.024 97.096 62.872C96.84 61.208 96.488 60.056 96.04 59.416C95.592 58.776 95.08 58.392 94.504 58.264C93.928 58.136 93.256 58.008 92.488 57.88C91.656 57.752 91.016 57.496 90.568 57.112C90.184 56.728 89.992 56.376 89.992 56.056C89.992 55.416 90.536 55.096 91.624 55.096C91.752 55.096 91.912 55.128 92.104 55.192C92.36 55.192 92.616 55.224 92.872 55.288C94.088 55.608 95.432 56.312 96.904 57.4C98.376 58.488 99.656 59.96 100.744 61.816C101.832 63.672 102.376 66.008 102.376 68.824C102.376 71.448 101.768 74.36 100.552 77.56C98.76 82.232 96.424 86.84 93.544 91.384C90.664 95.864 87.464 100.088 83.944 104.056C80.488 107.96 76.936 111.448 73.288 114.52C69.64 117.528 66.12 119.896 62.728 121.624C59.4 123.352 56.424 124.216 53.8 124.216ZM103.477 115C101.109 115 99.445 114.328 98.485 112.984C97.525 111.576 97.045 109.976 97.045 108.184C97.045 107.224 97.141 106.264 97.333 105.304C97.589 104.28 97.877 103.352 98.197 102.52L104.629 86.104C104.821 85.592 104.917 85.144 104.917 84.76C104.917 84.12 104.757 83.576 104.437 83.128C104.117 82.616 103.893 82.264 103.765 82.072L109.045 81.88C110.005 81.816 110.677 81.944 111.061 82.264C111.509 82.52 111.733 82.84 111.733 83.224C111.733 83.608 111.509 84.312 111.061 85.336L103.093 104.056C103.093 104.056 102.901 104.472 102.517 105.304C102.197 106.072 102.005 106.584 101.941 106.84C101.749 107.8 101.621 108.408 101.557 108.664C101.493 108.92 101.461 109.08 101.461 109.144C101.461 109.208 101.461 109.464 101.461 109.912C101.461 110.744 101.653 111.448 102.037 112.024C102.485 112.6 103.221 112.888 104.245 112.888C104.885 112.888 105.621 112.696 106.453 112.312C107.285 111.928 107.893 111.544 108.277 111.16C109.877 109.496 111.445 107.32 112.981 104.632C114.581 101.88 116.053 99.16 117.397 96.472C117.653 95.832 117.973 95.512 118.357 95.512C118.677 95.512 118.837 95.736 118.837 96.184C118.837 96.44 118.741 96.824 118.549 97.336C117.909 98.68 117.109 100.344 116.149 102.328C115.189 104.312 114.037 106.296 112.693 108.28C111.413 110.2 110.005 111.8 108.469 113.08C106.933 114.36 105.269 115 103.477 115ZM112.405 74.776C112.213 74.776 111.509 74.488 110.293 73.912C109.077 73.336 107.701 72.632 106.165 71.8C104.629 70.968 103.189 70.2 101.845 69.496C100.565 68.792 99.669 68.312 99.157 68.056C98.325 67.672 97.525 67.128 96.757 66.424C95.989 65.72 95.605 64.856 95.605 63.832C95.605 62.488 96.245 61.816 97.525 61.816C97.909 61.816 98.677 62.2 99.829 62.968C100.981 63.736 102.325 64.696 103.861 65.848C105.397 67 106.869 68.184 108.277 69.4C109.749 70.552 110.965 71.576 111.925 72.472C112.885 73.304 113.365 73.784 113.365 73.912C113.365 74.488 113.045 74.776 112.405 74.776ZM133.193 115.768C135.497 111.096 137.706 106.488 139.818 101.944C141.994 97.336 144.202 92.952 146.442 88.792C147.722 86.488 148.778 84.888 149.609 83.992C150.506 83.032 151.69 82.552 153.162 82.552C153.674 82.552 154.218 82.648 154.794 82.84C155.37 82.968 155.946 83.032 156.522 83.032C156.906 83.032 157.194 83 157.386 82.936C156.49 83.448 155.338 84.728 153.93 86.776C152.522 88.76 151.082 91.064 149.609 93.688C148.138 96.312 146.826 98.776 145.674 101.08C146.89 99.608 148.138 98.136 149.418 96.664C150.762 95.192 152.234 93.784 153.834 92.44C155.37 91.096 157.194 89.72 159.306 88.312C161.482 86.84 163.594 85.624 165.642 84.664C167.69 83.704 169.322 83.224 170.538 83.224C170.986 83.224 171.306 83.256 171.498 83.32C171.498 83.32 171.146 83.96 170.442 85.24C169.738 86.456 168.842 88.088 167.754 90.136C166.73 92.12 165.674 94.264 164.586 96.568C163.498 98.808 162.506 100.984 161.609 103.096C160.778 105.144 160.234 106.872 159.978 108.28C159.786 109.112 159.69 109.88 159.69 110.584C159.69 111.608 159.882 112.28 160.266 112.6C160.65 112.92 161.066 113.08 161.514 113.08C162.73 113.08 164.01 112.44 165.354 111.16C166.698 109.816 167.978 108.184 169.194 106.264C170.474 104.344 171.594 102.488 172.554 100.696C173.578 98.84 174.314 97.432 174.762 96.472C175.018 95.96 175.21 95.672 175.338 95.608C175.466 95.48 175.658 95.416 175.914 95.416C176.298 95.416 176.49 95.672 176.49 96.184C176.49 96.504 176.394 96.856 176.202 97.24C175.434 98.712 174.506 100.472 173.418 102.52C172.394 104.568 171.21 106.584 169.866 108.568C168.522 110.488 167.05 112.12 165.45 113.464C163.85 114.744 162.122 115.384 160.266 115.384C158.986 115.384 157.642 114.936 156.234 114.04C154.89 113.144 154.218 111.48 154.218 109.048C154.218 108.344 154.282 107.608 154.41 106.84C154.538 106.008 154.762 105.112 155.082 104.152C155.594 102.872 156.202 101.496 156.906 100.024C157.61 98.552 158.762 96.536 160.362 93.976C160.81 93.272 161.066 92.728 161.13 92.344C161.258 91.96 161.322 91.64 161.322 91.384C161.322 90.616 160.97 90.232 160.266 90.232C159.69 90.232 158.826 90.552 157.674 91.192C156.586 91.832 155.21 92.952 153.546 94.552C151.946 96.088 150.026 98.264 147.786 101.08C145.61 103.896 143.082 108.056 140.202 113.56C139.754 114.392 139.242 114.84 138.666 114.904C138.154 114.968 137.418 115.032 136.457 115.096C135.817 115.16 135.209 115.192 134.633 115.192C134.058 115.256 133.577 115.448 133.193 115.768ZM168.035 145.624C161.955 145.624 158.915 143.128 158.915 138.136C158.915 135.768 159.747 133.656 161.411 131.8C163.075 129.944 165.059 128.344 167.363 127C170.564 125.08 173.668 123.544 176.676 122.392C179.684 121.24 182.532 120.216 185.22 119.32C187.972 118.488 190.564 117.56 192.996 116.536C194.148 113.144 194.916 109.592 195.3 105.88C195.492 103.96 195.588 102.296 195.588 100.888C195.588 99.416 195.492 98.456 195.3 98.008C194.596 99.352 193.668 100.984 192.516 102.904C191.364 104.824 190.052 106.712 188.58 108.568C187.108 110.36 185.508 111.864 183.78 113.08C182.116 114.296 180.388 114.904 178.596 114.904C177.956 114.904 177.348 114.808 176.772 114.616C174.98 113.848 173.668 112.76 172.836 111.352C172.068 109.944 171.684 108.344 171.684 106.552C171.684 103.672 172.516 100.568 174.18 97.24C175.844 93.912 177.828 90.872 180.132 88.12C181.988 85.88 184.164 84.088 186.66 82.744C189.156 81.4 191.684 80.728 194.244 80.728C197.188 80.728 199.94 81.72 202.5 83.704C203.46 84.472 203.94 85.304 203.94 86.2C203.94 87.16 203.556 87.64 202.788 87.64C202.148 87.64 201.7 87.224 201.444 86.392C200.548 84.024 199.108 82.84 197.124 82.84C195.524 82.84 193.7 83.544 191.652 84.952C189.604 86.296 187.684 87.992 185.892 90.04C184.356 91.768 182.852 93.752 181.38 95.992C179.972 98.232 178.788 100.44 177.828 102.616C176.932 104.792 176.484 106.68 176.484 108.28C176.484 109.368 176.74 110.296 177.252 111.064C177.764 111.832 178.564 112.216 179.652 112.216C181.124 112.216 182.66 111.512 184.26 110.104C185.924 108.696 187.492 106.968 188.964 104.92C190.5 102.872 191.812 100.792 192.9 98.68C194.052 96.568 194.852 94.808 195.3 93.4C195.748 91.928 196.356 91.032 197.124 90.712C197.892 90.328 198.66 90.136 199.428 90.136C200.196 90.136 200.836 89.944 201.348 89.56C201.604 90.968 201.764 92.408 201.828 93.88C201.956 95.288 202.02 96.728 202.02 98.2C202.02 103.128 201.38 108.088 200.1 113.08C201.252 112.184 202.436 111.224 203.652 110.2C204.932 109.112 206.02 107.96 206.916 106.744C208.516 104.568 209.7 102.584 210.468 100.792C211.3 98.936 211.94 97.496 212.388 96.472C212.772 95.832 213.188 95.512 213.636 95.512C214.02 95.512 214.212 95.704 214.212 96.088C214.212 96.408 214.084 96.792 213.828 97.24C212.228 100.632 210.756 103.544 209.412 105.976C208.068 108.344 206.596 110.36 204.996 112.024C203.396 113.624 201.412 115 199.044 116.152C198.02 119.224 196.484 122.456 194.436 125.848C192.388 129.24 189.988 132.44 187.236 135.448C184.484 138.456 181.476 140.888 178.212 142.744C174.948 144.664 171.556 145.624 168.035 145.624ZM165.731 143.704C167.139 143.704 168.611 143.384 170.148 142.744C171.748 142.168 173.252 141.464 174.66 140.632C176.068 139.8 177.156 139.096 177.924 138.52C179.396 137.368 180.9 135.928 182.436 134.2C183.972 132.472 185.316 130.808 186.468 129.208C187.556 127.672 188.58 126.04 189.54 124.312C190.564 122.648 191.428 120.984 192.132 119.32C191.62 119.512 190.98 119.736 190.212 119.992C189.508 120.248 188.996 120.44 188.676 120.568C186.564 121.272 184.228 122.072 181.668 122.968C179.172 123.928 176.676 124.952 174.18 126.04C171.684 127.192 169.411 128.44 167.363 129.784C165.571 131 164.099 132.6 162.947 134.584C161.731 136.568 161.123 138.296 161.123 139.768C161.123 140.856 161.507 141.784 162.275 142.552C162.979 143.32 164.131 143.704 165.731 143.704ZM215.417 115C214.713 115 213.849 114.84 212.825 114.52C211.865 114.2 211.001 113.624 210.233 112.792C209.529 111.896 209.177 110.584 209.177 108.856C209.177 107.192 209.561 105.592 210.329 104.056C211.161 102.456 211.929 100.92 212.633 99.448C212.441 99.448 212.217 99.384 211.961 99.256C211.769 99.128 211.673 98.936 211.673 98.68C211.673 98.424 211.737 98.168 211.865 97.912C212.121 97.4 212.409 96.856 212.729 96.28C213.049 95.704 213.337 95.096 213.593 94.456C214.553 92.472 215.513 90.584 216.473 88.792C217.433 86.936 218.265 85.304 218.969 83.896C219.673 82.488 220.889 81.784 222.617 81.784H228.569C227.481 82.616 226.489 83.544 225.593 84.568C224.761 85.528 223.705 87.32 222.425 89.944C222.425 89.944 222.201 90.392 221.753 91.288C221.305 92.184 220.729 93.336 220.025 94.744C219.385 96.088 218.713 97.464 218.009 98.872C217.369 100.28 216.825 101.464 216.377 102.424C215.545 104.216 215.001 105.656 214.745 106.744C214.489 107.768 214.361 108.728 214.361 109.624C214.361 111.736 215.065 112.792 216.473 112.792C218.009 112.792 219.865 111.544 222.041 109.048C223.833 106.936 225.593 104.408 227.321 101.464C229.049 98.52 230.681 95.48 232.217 92.344C233.817 89.208 235.225 86.392 236.441 83.896C237.145 82.488 238.393 81.784 240.185 81.784H245.465C244.505 82.552 243.705 83.288 243.065 83.992C242.425 84.632 241.785 85.528 241.145 86.68C240.569 87.768 239.769 89.336 238.745 91.384C237.913 93.112 237.017 94.968 236.057 96.952C235.161 98.872 234.361 100.696 233.657 102.424C232.953 104.152 232.505 105.56 232.313 106.648C232.249 107.288 232.185 107.768 232.121 108.088C232.057 108.408 232.025 108.76 232.025 109.144C232.025 110.36 232.217 111.224 232.601 111.736C233.049 112.248 233.561 112.504 234.137 112.504C235.673 112.504 237.209 111.64 238.745 109.912C240.345 108.184 241.849 106.072 243.257 103.576C244.729 101.08 245.977 98.712 247.001 96.472C247.385 95.768 247.737 95.416 248.057 95.416C248.441 95.416 248.633 95.64 248.633 96.088C248.633 96.408 248.505 96.792 248.249 97.24C247.545 98.776 246.681 100.536 245.657 102.52C244.633 104.504 243.481 106.456 242.201 108.376C240.921 110.296 239.513 111.896 237.977 113.176C236.441 114.392 234.777 115 232.985 115C231.385 115 230.073 114.424 229.049 113.272C228.025 112.056 227.513 110.36 227.513 108.184C227.513 106.456 227.833 104.6 228.473 102.616C227.385 104.536 226.137 106.456 224.729 108.376C223.321 110.296 221.817 111.896 220.217 113.176C218.617 114.392 217.017 115 215.417 115ZM244.793 87.64C243.961 87.704 243.225 87.608 242.585 87.352C241.945 87.096 241.337 86.776 240.761 86.392C240.121 85.88 239.673 85.496 239.417 85.24C239.161 84.92 238.969 84.472 238.841 83.896V83.416C238.841 82.904 239.001 82.648 239.321 82.648C239.321 82.648 239.417 82.776 239.609 83.032C239.865 83.288 240.249 83.672 240.761 84.184C241.209 84.632 241.817 84.952 242.585 85.144C243.417 85.336 244.121 85.4 244.697 85.336C245.401 85.272 246.041 84.856 246.617 84.088C247.257 83.256 247.577 81.88 247.577 79.96C247.577 77.08 248.057 75.64 249.017 75.64C249.465 75.64 250.041 75.832 250.745 76.216C251.449 76.6 251.801 77.88 251.801 80.056C251.801 81.656 251.417 83.032 250.649 84.184C249.881 85.272 248.953 86.104 247.865 86.68C246.777 87.256 245.753 87.576 244.793 87.64ZM251.453 115C249.021 115 247.229 114.2 246.077 112.6C244.925 110.936 244.349 108.92 244.349 106.552C244.349 103.672 245.021 100.664 246.365 97.528C247.645 94.584 249.277 91.896 251.261 89.464C253.245 87.032 255.389 85.08 257.693 83.608C259.997 82.072 262.237 81.304 264.413 81.304C266.845 81.304 268.637 82.104 269.789 83.704C270.941 85.304 271.517 87.32 271.517 89.752C271.517 92.696 270.845 95.704 269.501 98.776C268.733 100.504 267.645 102.424 266.237 104.536C264.829 106.584 263.229 108.472 261.437 110.2C261.821 110.904 262.365 111.512 263.069 112.024C263.773 112.472 264.733 112.696 265.949 112.696C267.485 112.696 268.925 112.056 270.269 110.776C271.677 109.496 272.957 107.96 274.109 106.168C275.261 104.312 276.285 102.456 277.181 100.6C278.077 98.744 278.813 97.24 279.389 96.088C279.581 95.704 279.901 95.512 280.349 95.512C280.605 95.512 280.797 95.64 280.925 95.896C281.053 96.088 281.021 96.408 280.829 96.856C280.445 97.816 279.805 99.256 278.909 101.176C278.013 103.032 276.925 104.984 275.645 107.032C274.365 109.016 272.893 110.712 271.229 112.12C269.565 113.528 267.709 114.232 265.661 114.232C264.253 114.232 263.037 114.008 262.013 113.56C260.989 113.048 260.157 112.44 259.517 111.736C258.173 112.76 256.829 113.56 255.485 114.136C254.141 114.712 252.797 115 251.453 115ZM252.893 112.888C254.621 112.888 256.477 112.056 258.461 110.392C257.949 109.624 257.565 108.824 257.309 107.992C257.053 107.16 256.925 106.392 256.925 105.688C256.925 104.536 257.181 103.544 257.693 102.712C258.269 101.88 259.133 101.464 260.285 101.464C261.117 101.464 261.789 101.784 262.301 102.424C262.877 103 263.165 103.672 263.165 104.44C263.165 104.632 263.133 104.824 263.069 105.016C263.069 105.144 263.037 105.304 262.973 105.496C264.061 104.024 265.085 102.296 266.045 100.312C268.157 95.768 269.213 92.024 269.213 89.08C269.213 87.608 268.925 86.456 268.349 85.624C267.773 84.792 266.909 84.376 265.757 84.376C264.413 84.376 262.941 84.952 261.341 86.104C259.805 87.256 258.301 88.792 256.829 90.712C255.421 92.632 254.173 94.776 253.085 97.144C252.061 99.32 251.229 101.432 250.589 103.48C250.013 105.464 249.725 107.192 249.725 108.664C249.725 109.944 249.981 110.968 250.493 111.736C251.005 112.504 251.805 112.888 252.893 112.888ZM274.781 89.368C273.949 89.432 273.213 89.336 272.573 89.08C271.933 88.824 271.325 88.504 270.749 88.12C270.109 87.608 269.661 87.224 269.405 86.968C269.149 86.648 268.957 86.2 268.829 85.624V85.144C268.829 84.632 268.989 84.376 269.309 84.376C269.309 84.376 269.405 84.504 269.597 84.76C269.853 85.016 270.237 85.4 270.749 85.912C271.197 86.36 271.805 86.68 272.573 86.872C273.405 87.064 274.109 87.128 274.685 87.064C275.389 87 276.029 86.584 276.605 85.816C277.245 84.984 277.565 83.608 277.565 81.688C277.565 78.808 278.045 77.368 279.005 77.368C279.453 77.368 280.029 77.56 280.733 77.944C281.437 78.328 281.789 79.608 281.789 81.784C281.789 83.384 281.405 84.76 280.637 85.912C279.869 87 278.941 87.832 277.853 88.408C276.765 88.984 275.741 89.304 274.781 89.368ZM270.077 74.776C269.885 74.776 269.181 74.488 267.965 73.912C266.749 73.336 265.373 72.632 263.837 71.8C262.301 70.968 260.861 70.2 259.517 69.496C258.237 68.792 257.341 68.312 256.829 68.056C255.997 67.672 255.197 67.128 254.429 66.424C253.661 65.72 253.277 64.856 253.277 63.832C253.277 62.488 253.917 61.816 255.197 61.816C255.581 61.816 256.349 62.2 257.501 62.968C258.653 63.736 259.997 64.696 261.533 65.848C263.069 67 264.541 68.184 265.949 69.4C267.421 70.552 268.637 71.576 269.597 72.472C270.557 73.304 271.037 73.784 271.037 73.912C271.037 74.488 270.717 74.776 270.077 74.776ZM289.753 76.024C288.793 76.024 287.993 75.704 287.353 75.064C286.777 74.36 286.489 73.528 286.489 72.568C286.489 71.352 286.969 70.296 287.929 69.4C288.889 68.504 289.945 68.056 291.097 68.056C292.121 68.056 292.953 68.376 293.593 69.016C294.233 69.656 294.553 70.424 294.553 71.32C294.553 72.536 294.073 73.624 293.113 74.584C292.153 75.544 291.033 76.024 289.753 76.024ZM281.977 115C279.609 115 277.945 114.328 276.985 112.984C276.025 111.576 275.545 109.976 275.545 108.184C275.545 107.224 275.641 106.264 275.833 105.304C276.089 104.28 276.377 103.352 276.697 102.52L283.129 86.104C283.321 85.592 283.417 85.144 283.417 84.76C283.417 84.12 283.257 83.576 282.937 83.128C282.617 82.616 282.393 82.264 282.265 82.072L287.545 81.88C288.505 81.816 289.177 81.944 289.561 82.264C290.009 82.52 290.233 82.84 290.233 83.224C290.233 83.608 290.009 84.312 289.561 85.336L281.593 104.056C281.593 104.056 281.401 104.472 281.017 105.304C280.697 106.072 280.505 106.584 280.441 106.84C280.249 107.8 280.121 108.408 280.057 108.664C279.993 108.92 279.961 109.08 279.961 109.144C279.961 109.208 279.961 109.464 279.961 109.912C279.961 110.744 280.153 111.448 280.537 112.024C280.985 112.6 281.721 112.888 282.745 112.888C283.385 112.888 284.121 112.696 284.953 112.312C285.785 111.928 286.393 111.544 286.777 111.16C288.377 109.496 289.945 107.32 291.481 104.632C293.081 101.88 294.553 99.16 295.897 96.472C296.153 95.832 296.473 95.512 296.857 95.512C297.177 95.512 297.337 95.736 297.337 96.184C297.337 96.44 297.241 96.824 297.049 97.336C296.409 98.68 295.609 100.344 294.649 102.328C293.689 104.312 292.537 106.296 291.193 108.28C289.913 110.2 288.505 111.8 286.969 113.08C285.433 114.36 283.769 115 281.977 115ZM368.238 124.216C367.918 124.216 367.63 124.216 367.374 124.216C367.118 124.216 366.862 124.184 366.606 124.12C363.534 123.544 361.998 120.792 361.998 115.864C361.998 111.896 362.99 106.552 364.974 99.832C366.958 93.112 369.966 85.016 373.998 75.544C375.15 72.856 376.302 69.848 377.454 66.52C378.606 63.128 379.566 59.736 380.334 56.344C381.166 52.952 381.582 49.88 381.582 47.128C381.582 45.144 381.326 43.416 380.814 41.944C380.302 40.408 379.438 39.288 378.222 38.584C376.814 37.688 375.246 37.048 373.518 36.664C371.854 36.216 370.094 35.992 368.238 35.992C364.91 35.992 361.422 36.6 357.774 37.816C354.126 38.968 350.51 40.6 346.926 42.712C343.342 44.824 339.95 47.288 336.75 50.104C333.55 52.92 330.702 55.992 328.206 59.32C325.774 62.584 323.918 65.976 322.638 69.496C321.806 71.864 321.166 74.104 320.718 76.216C320.334 78.328 320.142 80.312 320.142 82.168C320.142 86.008 320.91 89.24 322.446 91.864C323.982 94.424 325.966 96.344 328.398 97.624C330.894 98.904 333.518 99.544 336.27 99.544C338.958 99.544 341.614 98.904 344.238 97.624C346.926 96.28 349.326 94.52 351.438 92.344C353.614 90.168 355.342 87.768 356.622 85.144C357.902 82.52 358.542 79.864 358.542 77.176C358.542 75 358.094 73.112 357.198 71.512C356.302 69.848 354.798 69.016 352.686 69.016C352.238 69.016 351.758 69.048 351.246 69.112C350.798 69.176 350.318 69.304 349.806 69.496C349.166 69.688 348.654 69.784 348.27 69.784C347.95 69.784 347.79 69.688 347.79 69.496C347.79 69.368 347.918 69.176 348.174 68.92C348.43 68.6 348.782 68.344 349.23 68.152C351.086 67.32 352.814 66.904 354.414 66.904C357.038 66.904 359.086 67.896 360.558 69.88C362.03 71.864 362.766 74.264 362.766 77.08C362.766 80.152 361.87 83.16 360.078 86.104C358.35 89.048 356.078 91.736 353.262 94.168C350.446 96.536 347.406 98.456 344.142 99.928C340.878 101.336 337.742 102.04 334.734 102.04C331.342 102.04 328.11 101.112 325.038 99.256C321.966 97.4 319.47 94.808 317.55 91.48C315.63 88.088 314.669 84.152 314.669 79.672C314.669 77.624 314.925 75.48 315.438 73.24C315.886 71 316.622 68.696 317.646 66.328C319.758 61.464 322.702 57.016 326.478 52.984C330.254 48.952 334.478 45.496 339.15 42.616C343.822 39.672 348.59 37.432 353.454 35.896C358.318 34.296 362.958 33.496 367.374 33.496C371.278 33.496 374.766 34.168 377.838 35.512C381.23 36.984 383.63 39.16 385.038 42.04C386.446 44.92 387.15 48.152 387.15 51.736C387.15 55.64 386.478 59.8 385.134 64.216C383.854 68.568 382.222 72.728 380.238 76.696C378.19 80.856 376.334 85.208 374.67 89.752C373.006 94.232 371.598 98.52 370.446 102.616C369.294 106.648 368.462 110.136 367.95 113.08C367.822 113.784 367.726 114.424 367.662 115C367.598 115.64 367.566 116.216 367.566 116.728C367.566 119.736 368.558 121.24 370.542 121.24C371.886 121.24 373.486 120.664 375.342 119.512C377.198 118.424 379.118 117.048 381.102 115.384C383.15 113.72 385.102 111.992 386.958 110.2C388.814 108.344 390.414 106.712 391.758 105.304C393.102 103.832 394.03 102.808 394.542 102.232C399.918 95.96 404.142 89.688 407.214 83.416C410.286 77.08 411.822 71.384 411.822 66.328C411.822 65.176 411.726 64.024 411.534 62.872C411.278 61.208 410.926 60.056 410.478 59.416C410.03 58.776 409.518 58.392 408.942 58.264C408.366 58.136 407.694 58.008 406.926 57.88C406.094 57.752 405.454 57.496 405.006 57.112C404.622 56.728 404.43 56.376 404.43 56.056C404.43 55.416 404.974 55.096 406.062 55.096C406.19 55.096 406.35 55.128 406.542 55.192C406.798 55.192 407.054 55.224 407.31 55.288C408.526 55.608 409.87 56.312 411.342 57.4C412.814 58.488 414.094 59.96 415.182 61.816C416.27 63.672 416.813 66.008 416.813 68.824C416.813 71.448 416.206 74.36 414.99 77.56C413.198 82.232 410.862 86.84 407.982 91.384C405.102 95.864 401.902 100.088 398.382 104.056C394.926 107.96 391.374 111.448 387.726 114.52C384.078 117.528 380.558 119.896 377.166 121.624C373.838 123.352 370.862 124.216 368.238 124.216ZM425.691 76.024C424.731 76.024 423.931 75.704 423.291 75.064C422.715 74.36 422.427 73.528 422.427 72.568C422.427 71.352 422.907 70.296 423.867 69.4C424.827 68.504 425.883 68.056 427.035 68.056C428.059 68.056 428.891 68.376 429.531 69.016C430.171 69.656 430.491 70.424 430.491 71.32C430.491 72.536 430.011 73.624 429.051 74.584C428.091 75.544 426.971 76.024 425.691 76.024ZM417.915 115C415.547 115 413.883 114.328 412.923 112.984C411.963 111.576 411.483 109.976 411.483 108.184C411.483 107.224 411.579 106.264 411.771 105.304C412.027 104.28 412.315 103.352 412.635 102.52L419.067 86.104C419.259 85.592 419.355 85.144 419.355 84.76C419.355 84.12 419.195 83.576 418.875 83.128C418.555 82.616 418.331 82.264 418.203 82.072L423.483 81.88C424.443 81.816 425.115 81.944 425.499 82.264C425.947 82.52 426.171 82.84 426.171 83.224C426.171 83.608 425.947 84.312 425.499 85.336L417.531 104.056C417.531 104.056 417.339 104.472 416.955 105.304C416.635 106.072 416.443 106.584 416.379 106.84C416.187 107.8 416.059 108.408 415.995 108.664C415.931 108.92 415.898 109.08 415.898 109.144C415.898 109.208 415.898 109.464 415.898 109.912C415.898 110.744 416.091 111.448 416.475 112.024C416.923 112.6 417.659 112.888 418.683 112.888C419.323 112.888 420.059 112.696 420.891 112.312C421.723 111.928 422.331 111.544 422.715 111.16C424.315 109.496 425.883 107.32 427.419 104.632C429.019 101.88 430.491 99.16 431.835 96.472C432.091 95.832 432.411 95.512 432.795 95.512C433.115 95.512 433.275 95.736 433.275 96.184C433.275 96.44 433.179 96.824 432.987 97.336C432.347 98.68 431.547 100.344 430.587 102.328C429.627 104.312 428.475 106.296 427.131 108.28C425.851 110.2 424.443 111.8 422.907 113.08C421.371 114.36 419.707 115 417.915 115ZM438.63 115.384C436.262 115.384 434.118 114.616 432.198 113.08C430.342 111.544 429.414 109.208 429.414 106.072C429.414 103.192 430.118 100.12 431.526 96.856C432.934 93.528 434.726 90.616 436.902 88.12C438.758 85.944 440.838 84.152 443.142 82.744C445.446 81.336 447.622 80.632 449.67 80.632C451.078 80.632 452.293 81.016 453.318 81.784C454.406 82.616 454.95 83.8 454.95 85.336C454.95 86.936 454.342 88.696 453.126 90.616C451.91 92.536 450.182 94.328 447.942 95.992C446.982 96.696 445.766 97.368 444.294 98.008C442.822 98.648 441.35 99.192 439.878 99.64C438.406 100.024 437.19 100.216 436.23 100.216C435.91 100.984 435.59 102.008 435.27 103.288C435.014 104.568 434.886 105.88 434.886 107.224C434.886 108.824 435.206 110.264 435.846 111.544C436.486 112.824 437.67 113.464 439.398 113.464C441.51 113.464 443.43 112.856 445.158 111.64C446.886 110.424 448.422 108.92 449.766 107.128C451.11 105.272 452.23 103.416 453.126 101.56C454.086 99.704 454.854 98.136 455.43 96.856C455.814 95.96 456.326 95.512 456.966 95.512C457.286 95.512 457.446 95.672 457.446 95.992C457.446 96.248 457.35 96.568 457.158 96.952C456.262 98.872 455.302 100.92 454.278 103.096C453.254 105.208 452.038 107.224 450.63 109.144C449.222 111 447.526 112.504 445.542 113.656C443.622 114.808 441.318 115.384 438.63 115.384ZM436.902 98.488C437.798 98.488 439.302 98.168 441.414 97.528C443.526 96.824 445.446 95.736 447.174 94.264C448.838 92.792 450.118 91.192 451.014 89.464C451.91 87.672 452.358 86.168 452.358 84.952C452.358 83.544 451.846 82.84 450.822 82.84C450.054 82.84 448.998 83.352 447.654 84.376C446.31 85.4 444.646 87.128 442.662 89.56C441.446 91.096 440.294 92.76 439.206 94.552C438.118 96.344 437.35 97.656 436.902 98.488ZM437.094 129.112C436.134 129.112 435.334 128.76 434.694 128.056C434.118 127.416 433.83 126.616 433.83 125.656C433.83 124.44 434.31 123.384 435.27 122.488C436.23 121.592 437.286 121.144 438.438 121.144C439.462 121.144 440.294 121.464 440.934 122.104C441.574 122.744 441.894 123.512 441.894 124.408C441.894 125.624 441.414 126.712 440.454 127.672C439.494 128.632 438.374 129.112 437.094 129.112ZM440.934 74.296L455.334 64.024C455.334 64.024 455.622 63.992 456.198 63.928C456.838 63.864 457.446 63.832 458.022 63.832C458.662 63.832 458.982 63.896 458.982 64.024L462.438 74.296C462.438 74.36 462.438 74.392 462.438 74.392C462.502 74.392 462.534 74.424 462.534 74.488C462.534 74.744 462.31 74.872 461.862 74.872C461.222 74.872 460.774 74.68 460.518 74.296L456.006 68.632C455.302 69.016 454.31 69.496 453.03 70.072C451.814 70.648 450.502 71.224 449.094 71.8C447.75 72.376 446.534 72.888 445.446 73.336C444.422 73.784 443.75 74.104 443.43 74.296C443.174 74.488 442.886 74.616 442.566 74.68C442.246 74.744 441.926 74.776 441.606 74.776C441.286 74.776 441.03 74.744 440.838 74.68C440.71 74.552 440.742 74.424 440.934 74.296ZM460.33 115C458.538 115 456.938 114.392 455.53 113.176C454.122 111.896 453.418 109.912 453.418 107.224C453.418 105.112 453.802 102.52 454.57 99.448C455.402 96.312 456.394 93.08 457.546 89.752C458.762 86.36 459.946 83.288 461.098 80.536H456.01C455.562 80.536 455.338 80.216 455.338 79.576C455.338 79.256 455.402 78.968 455.53 78.712C455.722 78.456 455.978 78.328 456.298 78.328H462.058C463.146 75.896 464.298 73.528 465.514 71.224C466.73 68.92 467.914 66.744 469.066 64.696C470.538 62.136 472.106 60.216 473.77 58.936C475.434 57.656 476.874 57.016 478.09 57.016C479.05 57.016 479.85 57.4 480.49 58.168C481.13 58.872 481.45 59.96 481.45 61.432C481.45 62.328 481.258 63.576 480.874 65.176C480.49 66.712 479.882 68.344 479.05 70.072C478.602 70.968 477.962 72.248 477.13 73.912C476.362 75.576 475.594 77.048 474.826 78.328H479.434C479.882 78.328 480.106 78.648 480.106 79.288C480.106 79.544 480.042 79.832 479.914 80.152C479.786 80.408 479.594 80.536 479.338 80.536H473.674C472.074 83.288 470.25 85.976 468.202 88.6C466.154 91.224 463.722 93.848 460.906 96.472C460.714 97.048 460.458 97.88 460.138 98.968C459.882 100.056 459.626 101.176 459.37 102.328C459.178 103.416 458.986 104.344 458.794 105.112C458.666 105.88 458.602 106.264 458.602 106.264C458.41 107.096 458.314 107.864 458.314 108.568C458.314 109.912 458.634 110.904 459.274 111.544C459.914 112.12 460.65 112.408 461.482 112.408C461.994 112.408 462.506 112.344 463.018 112.216C463.53 112.024 464.106 111.704 464.746 111.256C466.986 109.656 468.938 107.48 470.602 104.728C472.33 101.976 473.834 99.32 475.114 96.76C475.498 95.992 475.882 95.608 476.266 95.608C476.522 95.608 476.65 95.8 476.65 96.184C476.65 96.376 476.554 96.728 476.362 97.24C474.954 100.184 473.77 102.552 472.81 104.344C471.85 106.136 470.922 107.64 470.026 108.856C469.13 110.008 468.074 111.16 466.858 112.312C465.962 113.208 464.938 113.88 463.786 114.328C462.634 114.776 461.482 115 460.33 115ZM467.914 78.328H472.81C473.706 76.664 474.538 75.032 475.306 73.432C476.138 71.832 476.874 70.232 477.514 68.632C477.962 67.608 478.346 66.456 478.666 65.176C478.986 63.896 479.146 62.904 479.146 62.2C479.146 61.24 478.922 60.76 478.474 60.76C478.154 60.76 477.674 61.048 477.034 61.624C476.458 62.136 475.722 63.032 474.826 64.312C473.674 65.912 472.522 67.992 471.37 70.552C470.282 73.048 469.13 75.64 467.914 78.328ZM461.674 93.4C463.53 91.48 465.258 89.432 466.858 87.256C468.522 85.08 470.058 82.84 471.466 80.536H466.954C465.93 82.904 464.97 85.208 464.074 87.448C463.178 89.688 462.378 91.672 461.674 93.4Z" fill="black"/>
<g filter="url(#filter1_d_65_412)">
<path d="M5.69495 134C144.576 176.285 430.761 245.227 464.452 182.719C441.018 178.952 418.289 186.162 433.316 202.582C452.099 223.107 395.645 224.337 377.273 219.949C343.467 211.875 147.463 152.13 105.603 151.323C62.812 150.499 6.67842 173.901 6.67842 173.901" stroke="black" shape-rendering="crispEdges"/>
</g>
<defs>
<filter id="filter0_d_65_412" x="101.511" y="29.6816" width="249.501" height="120.637" filterUnits="userSpaceOnUse" color-interpolation-filters="sRGB">
<feFlood flood-opacity="0" result="BackgroundImageFix"/>
<feColorMatrix in="SourceAlpha" type="matrix" values="0 0 0 0 0 0 0 0 0 0 0 0 0 0 0 0 0 0 127 0" result="hardAlpha"/>
<feOffset/>
<feGaussianBlur stdDeviation="2.5"/>
<feComposite in2="hardAlpha" operator="out"/>
<feColorMatrix type="matrix" values="0 0 0 0 0 0 0 0 0 0 0 0 0 0 0 0 0 0 0.5 0"/>
<feBlend mode="normal" in2="BackgroundImageFix" result="effect1_dropShadow_65_412"/>
<feBlend mode="normal" in="SourceGraphic" in2="effect1_dropShadow_65_412" result="shape"/>
</filter>
<filter id="filter1_d_65_412" x="3.54932" y="131.521" width="463.676" height="92.9941" filterUnits="userSpaceOnUse" color-interpolation-filters="sRGB">
<feFlood flood-opacity="0" result="BackgroundImageFix"/>
<feColorMatrix in="SourceAlpha" type="matrix" values="0 0 0 0 0 0 0 0 0 0 0 0 0 0 0 0 0 0 127 0" result="hardAlpha"/>
<feOffset/>
<feGaussianBlur stdDeviation="1"/>
<feComposite in2="hardAlpha" operator="out"/>
<feColorMatrix type="matrix" values="0 0 0 0 0 0 0 0 0 0 0 0 0 0 0 0 0 0 1 0"/>
<feBlend mode="normal" in2="BackgroundImageFix" result="effect1_dropShadow_65_412"/>
<feBlend mode="normal" in="SourceGraphic" in2="effect1_dropShadow_65_412" result="shape"/>
</filter>
</defs>
</svg>
