<svg width="45" height="39" viewBox="0 0 45 39" fill="none" xmlns="http://www.w3.org/2000/svg">
<path d="M40.7812 0H4.21875C1.88965 0 0 1.87165 0 4.17857V34.8214C0 37.1283 1.88965 39 4.21875 39H40.7812C43.1104 39 45 37.1283 45 34.8214V4.17857C45 1.87165 43.1104 0 40.7812 0ZM33.4336 25.2891C33.8555 25.7069 33.8555 26.3859 33.4336 26.8038L29.874 30.3295C29.4521 30.7473 28.7666 30.7473 28.3447 30.3295L22.5 24.4882L16.6553 30.3295C16.2334 30.7473 15.5479 30.7473 15.126 30.3295L11.5664 26.8038C11.1445 26.3859 11.1445 25.7069 11.5664 25.2891L17.4639 19.5L11.5664 13.7109C11.1445 13.2931 11.1445 12.6141 11.5664 12.1962L15.126 8.67054C15.5479 8.25268 16.2334 8.25268 16.6553 8.67054L22.5 14.5118L28.3447 8.67054C28.7666 8.25268 29.4521 8.25268 29.874 8.67054L33.4336 12.1962C33.8555 12.6141 33.8555 13.2931 33.4336 13.7109L27.5361 19.5L33.4336 25.2891Z" fill="#01435A"/>
</svg>
